{"glyphs":{"0":{"ha":989,"x_min":0,"x_max":0,"o":"m 631 -54 b 125 113 444 -112 239 -61 b 54 599 42 242 31 428 b 194 932 71 711 115 842 b 836 915 349 1110 683 1101 b 631 -54 1038 660 974 61 m 514 707 b 550 292 339 685 401 229 b 621 500 608 315 619 438 b 514 707 624 554 600 717 "},"1":{"ha":779,"x_min":0,"x_max":0,"o":"m 417 -74 b 168 -76 333 -76 250 -86 b 63 -14 126 -69 83 -57 b 51 64 51 10 50 38 b 199 208 54 154 101 204 b 290 203 229 210 261 210 b 301 550 279 307 290 415 b 114 506 250 517 181 490 b 39 665 53 526 15 604 b 224 872 60 719 182 822 b 326 992 257 913 285 960 b 533 1029 381 1033 463 1039 b 594 1014 554 1026 575 1024 b 650 913 632 997 644 957 b 631 614 664 817 640 718 b 617 219 615 483 610 351 b 618 200 617 215 617 208 b 729 174 654 203 699 199 b 754 36 754 150 757 71 b 594 -72 743 -44 669 -75 b 417 -74 535 -72 475 -71 "},"2":{"ha":892,"x_min":0,"x_max":0,"o":"m 415 -57 b 72 22 325 -65 115 -101 b 68 117 63 53 63 86 b 150 247 76 172 103 206 b 510 669 293 361 467 468 b 472 747 513 700 504 740 b 381 683 435 756 394 719 b 351 560 365 643 363 600 b 308 488 344 532 332 503 b 99 492 257 451 149 456 b 61 531 83 501 71 515 b 118 865 8 632 64 771 b 485 1063 190 985 336 1057 b 808 872 619 1068 751 1006 b 593 229 921 596 779 428 b 694 236 626 233 661 236 b 825 64 808 236 863 190 b 774 -19 817 33 800 0 b 703 -43 754 -35 728 -40 b 604 -50 690 -44 617 -50 b 415 -57 542 -54 478 -51 "},"3":{"ha":908,"x_min":0,"x_max":0,"o":"m 601 -53 b 110 10 467 -93 238 -81 b 32 135 71 39 38 86 b 103 307 24 196 56 267 b 233 315 140 338 186 333 b 483 263 311 281 385 228 b 451 385 561 292 557 396 b 383 374 432 382 408 378 b 310 442 346 367 319 403 b 338 583 294 492 290 546 b 488 675 381 614 467 614 b 444 726 499 703 474 732 b 394 696 425 722 408 710 b 311 604 381 685 325 614 b 263 590 297 596 279 590 b 107 676 203 589 143 629 b 85 726 96 690 88 708 b 199 944 76 793 147 900 b 354 1038 242 986 296 1019 b 779 932 483 1081 697 1063 b 697 518 875 783 817 631 b 849 394 764 504 822 458 b 601 -53 925 214 776 1 "},"4":{"ha":990,"x_min":0,"x_max":0,"o":"m 782 -67 b 528 -18 708 -86 574 -79 b 508 61 513 4 507 35 b 547 240 511 119 528 181 b 217 225 444 222 333 211 b 35 456 86 240 19 315 b 189 883 51 600 111 753 b 381 1065 228 950 289 1058 b 561 1017 435 1071 519 1058 b 557 807 621 960 599 874 b 385 499 506 718 397 608 b 568 507 424 479 514 500 b 576 507 569 507 574 508 b 656 856 589 622 607 743 b 739 904 674 886 701 901 b 903 804 810 908 922 917 b 875 700 900 790 876 715 b 853 572 869 657 858 615 b 851 510 850 551 847 531 b 913 511 872 511 893 514 b 943 488 928 508 936 501 b 944 307 963 444 958 354 b 915 268 940 292 929 276 b 828 253 901 261 844 253 b 842 100 828 233 840 119 b 782 -67 846 42 858 -44 "},"5":{"ha":924,"x_min":0,"x_max":0,"o":"m 875 315 b 356 -61 829 74 608 -68 b 144 0 288 -61 199 -49 b 122 271 78 61 75 193 b 317 292 163 338 247 306 b 454 282 363 286 408 279 b 471 447 593 286 626 425 b 319 435 421 454 368 449 b 117 443 271 422 156 413 b 49 661 60 490 54 590 b 65 893 44 739 47 818 b 97 975 72 922 81 951 b 544 1031 168 1090 422 1035 b 758 1050 614 1031 686 1063 b 828 983 794 1044 822 1024 b 811 808 835 944 835 840 b 690 747 786 771 735 756 b 443 749 610 735 525 740 b 351 717 394 754 351 778 b 396 679 351 683 364 679 b 854 538 553 694 771 736 b 875 315 883 469 888 388 "},"6":{"ha":961,"x_min":0,"x_max":0,"o":"m 929 317 b 489 -57 896 100 715 -57 b 42 285 281 -57 79 50 b 399 1010 6 532 178 872 b 625 1079 449 1044 557 1113 b 739 961 675 1056 713 1008 b 765 885 753 938 767 911 b 703 813 763 854 729 832 b 511 654 638 768 581 725 b 860 554 624 669 772 653 b 929 317 917 492 943 404 m 444 424 b 511 181 358 369 375 154 b 592 379 586 197 613 314 b 444 424 576 436 496 453 "},"7":{"ha":836,"x_min":0,"x_max":0,"o":"m 326 -62 b 210 -51 288 -64 249 -58 b 88 90 142 -37 75 7 b 157 265 96 153 126 210 b 451 729 242 419 338 571 b 404 719 429 724 413 721 b 214 693 342 707 278 693 b 42 788 146 690 68 717 b 117 1018 13 864 24 986 b 231 1031 153 1031 193 1028 b 650 1078 371 1039 508 1075 b 806 793 819 1078 867 940 b 663 561 769 710 710 639 b 429 35 560 388 511 221 b 326 -62 408 -11 382 -57 "},"8":{"ha":893,"x_min":0,"x_max":0,"o":"m 574 -47 b 47 249 378 -87 24 -15 b 176 508 54 346 104 444 b 61 769 101 571 56 663 b 197 1015 65 869 114 958 b 693 1043 325 1107 551 1121 b 810 907 746 1015 786 963 b 689 482 872 753 806 596 b 824 350 744 453 794 413 b 574 -47 906 168 758 -10 m 397 647 b 507 653 422 628 481 636 b 513 732 540 674 550 719 b 381 667 447 751 354 731 b 397 647 383 660 389 651 m 438 404 b 457 290 360 378 354 275 b 438 404 556 308 544 440 "},"9":{"ha":960,"x_min":0,"x_max":0,"o":"m 925 676 b 469 -33 925 418 724 75 b 324 -42 419 -56 364 -68 b 218 75 278 -15 244 29 b 224 193 194 115 183 157 b 453 379 296 260 396 294 b 32 721 247 344 -8 463 b 460 1090 68 928 242 1088 b 925 676 708 1094 917 936 m 438 594 b 574 803 540 574 615 714 b 400 814 543 867 451 883 b 438 594 344 735 343 613 "},"\u0000":{"ha":0,"x_min":0,"x_max":0,"o":""}," ":{"ha":347,"x_min":0,"x_max":0,"o":""},"\r":{"ha":0,"x_min":0,"x_max":0,"o":""},"!":{"ha":506,"x_min":0,"x_max":0,"o":"m 346 304 b 179 306 308 271 224 281 b 79 829 40 381 67 694 b 125 1063 82 867 94 1022 b 185 1096 139 1081 163 1092 b 411 1074 250 1111 350 1114 b 456 933 456 1044 458 983 b 415 628 451 894 421 667 b 382 372 406 543 401 457 b 346 304 376 347 365 322 m 346 -103 b 68 -31 253 -140 118 -118 b 81 158 35 28 40 106 b 415 176 153 247 328 264 b 414 -44 472 119 458 24 b 346 -103 397 -68 374 -90 "},"\"":{"ha":589,"x_min":0,"x_max":0,"o":"m 514 686 b 397 667 489 664 449 667 b 332 689 375 667 347 671 b 336 1018 292 742 301 964 b 444 1047 357 1046 404 1054 b 554 864 564 1028 554 971 b 514 686 553 824 543 714 m 232 682 b 107 667 203 658 146 664 b 68 676 93 669 79 669 b 38 829 31 697 39 792 b 60 1021 36 853 49 1003 b 104 1044 68 1035 88 1042 b 261 1010 142 1053 233 1046 b 274 822 282 978 276 861 b 232 682 272 788 261 701 "},"«":{"ha":589,"x_min":0,"x_max":0,"o":"m 514 686 b 554 864 543 714 553 824 b 444 1047 554 971 564 1028 b 336 1018 404 1054 357 1046 b 332 689 301 964 292 742 b 397 667 347 671 375 667 b 514 686 449 667 489 664 m 232 682 b 274 822 261 701 272 788 b 261 1010 276 861 282 978 b 104 1044 233 1046 142 1053 b 60 1021 88 1042 68 1035 b 38 829 49 1003 36 853 b 68 676 39 792 31 697 b 107 667 79 669 93 669 b 232 682 146 664 203 658 "},"»":{"ha":589,"x_min":0,"x_max":0,"o":"m 514 686 b 397 667 489 664 449 667 b 332 689 375 667 347 671 b 336 1018 292 742 301 964 b 444 1047 357 1046 404 1054 b 554 864 564 1028 554 971 b 514 686 553 824 543 714 m 232 682 b 107 667 203 658 146 664 b 68 676 93 669 79 669 b 38 829 31 697 39 792 b 60 1021 36 853 49 1003 b 104 1044 68 1035 88 1042 b 261 1010 142 1053 233 1046 b 274 822 282 978 276 861 b 232 682 272 788 261 701 "},"„":{"ha":589,"x_min":0,"x_max":0,"o":"m 514 686 b 554 864 543 714 553 824 b 444 1047 554 971 564 1028 b 336 1018 404 1054 357 1046 b 332 689 301 964 292 742 b 397 667 347 671 375 667 b 514 686 449 667 489 664 m 232 682 b 274 822 261 701 272 788 b 261 1010 276 861 282 978 b 104 1044 233 1046 142 1053 b 60 1021 88 1042 68 1035 b 38 829 49 1003 36 853 b 68 676 39 792 31 697 b 107 667 79 669 93 669 b 232 682 146 664 203 658 "},"‟":{"ha":589,"x_min":0,"x_max":0,"o":"m 514 686 b 397 667 489 664 449 667 b 332 689 375 667 347 671 b 336 1018 292 742 301 964 b 444 1047 357 1046 404 1054 b 554 864 564 1028 554 971 b 514 686 553 824 543 714 m 232 682 b 107 667 203 658 146 664 b 68 676 93 669 79 669 b 38 829 31 697 39 792 b 60 1021 36 853 49 1003 b 104 1044 68 1035 88 1042 b 261 1010 142 1053 233 1046 b 274 822 282 978 276 861 b 232 682 272 788 261 701 "},"#":{"ha":1161,"x_min":0,"x_max":0,"o":"m 417 -51 b 225 -69 381 -90 276 -85 b 165 -31 203 -62 182 -49 b 171 158 118 25 146 100 b 36 233 117 158 54 171 b 43 353 25 272 32 315 b 89 433 53 383 65 414 b 228 443 114 453 196 450 b 233 442 228 443 231 443 b 260 540 240 469 254 522 b 121 585 214 538 150 535 b 118 743 93 629 94 696 b 213 800 138 778 165 794 b 297 796 240 800 268 799 b 336 979 303 842 315 928 b 435 1039 356 1019 389 1033 b 644 936 528 1049 644 1029 b 599 789 644 886 618 836 b 636 792 611 790 624 790 b 686 792 646 792 667 792 b 701 875 692 821 700 864 b 782 1038 711 932 718 1007 b 1003 1029 835 1063 954 1061 b 1039 876 1054 996 1049 933 b 1013 782 1032 844 1024 813 b 1099 769 1042 782 1072 781 b 1107 631 1149 749 1122 671 b 1021 574 1092 592 1063 576 b 946 572 1007 572 972 571 b 901 411 938 519 918 464 b 1060 386 939 408 1032 421 b 1064 225 1085 356 1074 264 b 968 138 1053 176 1021 144 b 854 138 935 132 888 128 b 835 47 847 108 842 78 b 738 -49 825 -7 797 -42 b 551 43 656 -57 556 -40 b 576 157 549 74 561 110 b 488 157 547 156 511 156 b 417 -51 488 104 457 -8 m 517 413 b 606 411 544 415 576 418 b 607 415 606 413 607 414 b 642 547 613 436 628 503 b 563 550 615 547 590 547 b 517 413 554 507 536 457 "},"$":{"ha":922,"x_min":0,"x_max":0,"o":"m 514 -150 b 406 -158 499 -153 421 -158 b 343 -118 381 -158 349 -143 b 353 -15 339 -103 347 -53 b 222 8 308 -12 264 -4 b 93 128 165 26 113 68 b 226 263 81 201 146 272 b 350 210 271 257 308 225 b 557 256 400 192 526 194 b 550 294 565 269 564 286 b 325 335 482 326 403 318 b 119 426 251 350 176 376 b 242 919 -56 572 75 822 b 354 965 276 939 314 954 b 351 1019 351 989 351 1010 b 396 1081 351 1047 368 1072 b 564 1043 432 1090 551 1096 b 568 983 569 1026 569 1008 b 775 899 633 983 717 947 b 888 656 840 846 893 747 b 721 532 882 571 803 532 b 578 588 674 532 601 533 b 558 696 561 621 567 660 b 494 744 551 725 524 739 b 338 600 429 753 306 681 b 447 532 354 558 400 542 b 688 481 528 517 613 515 b 553 -10 939 361 811 4 b 554 -62 554 -28 554 -46 b 514 -150 554 -93 556 -140 "},"%":{"ha":1671,"x_min":0,"x_max":0,"o":"m 706 -82 b 554 -97 667 -132 608 -121 b 475 -56 526 -86 499 -72 b 426 25 453 -37 421 -10 b 472 140 429 67 451 104 b 865 860 563 292 728 642 b 1133 1026 932 964 992 1086 b 1238 969 1171 1013 1208 996 b 1258 821 1283 931 1288 875 b 1203 728 1242 789 1225 757 b 706 -82 1022 496 899 149 m 610 846 b 331 397 672 658 564 397 b 31 750 151 397 -4 556 b 249 1003 51 864 131 965 b 610 846 400 1049 553 1011 m 301 663 b 378 640 313 633 350 626 b 361 769 438 667 432 793 b 301 663 322 757 285 711 m 1642 335 b 1249 -22 1663 125 1485 -108 b 1093 438 1067 46 979 260 b 1642 335 1240 671 1604 625 m 1353 200 b 1431 310 1413 190 1450 253 b 1321 222 1406 383 1281 293 b 1353 200 1326 210 1340 203 "},"&":{"ha":1010,"x_min":0,"x_max":0,"o":"m 603 25 b 332 -103 546 -53 439 -104 b 60 63 221 -103 107 -46 b 208 447 1 200 99 357 b 78 671 158 515 106 585 b 183 1022 36 804 76 929 b 404 1133 246 1076 325 1114 b 639 1140 481 1153 563 1157 b 800 608 867 1089 951 786 b 626 439 747 549 692 496 b 686 369 632 422 672 385 b 801 508 718 386 764 474 b 881 525 822 526 851 543 b 956 453 896 517 944 465 b 957 354 981 422 988 389 b 814 225 942 336 847 256 b 899 135 843 194 869 164 b 949 25 922 111 965 65 b 767 -76 929 -31 826 -72 b 694 -67 743 -79 717 -75 b 603 25 654 -51 624 -12 m 386 779 b 454 649 381 733 424 688 b 544 789 482 675 544 750 b 386 779 532 908 390 856 m 351 276 b 446 178 286 179 335 92 b 351 276 422 201 378 240 "},"'":{"ha":311,"x_min":0,"x_max":0,"o":"m 188 668 b 107 667 160 665 133 664 b 50 701 89 671 50 674 b 50 956 49 817 50 861 b 60 1021 50 978 49 1001 b 104 1044 68 1035 88 1042 b 261 1010 142 1053 233 1046 b 274 822 282 978 276 861 b 232 682 272 788 261 701 b 188 668 219 672 203 669 "},"‚":{"ha":311,"x_min":0,"x_max":0,"o":"m 188 668 b 232 682 203 669 219 672 b 274 822 261 701 272 788 b 261 1010 276 861 282 978 b 104 1044 233 1046 142 1053 b 60 1021 88 1042 68 1035 b 50 956 49 1001 50 978 b 50 701 50 861 49 817 b 107 667 50 674 89 671 b 188 668 133 664 160 665 "},"‛":{"ha":311,"x_min":0,"x_max":0,"o":"m 188 668 b 107 667 160 665 133 664 b 50 701 89 671 50 674 b 50 956 49 817 50 861 b 60 1021 50 978 49 1001 b 104 1044 68 1035 88 1042 b 261 1010 142 1053 233 1046 b 274 822 282 978 276 861 b 232 682 272 788 261 701 b 188 668 219 672 203 669 "},"‹":{"ha":311,"x_min":0,"x_max":0,"o":"m 188 668 b 232 682 203 669 219 672 b 274 822 261 701 272 788 b 261 1010 276 861 282 978 b 104 1044 233 1046 142 1053 b 60 1021 88 1042 68 1035 b 50 956 49 1001 50 978 b 50 701 50 861 49 817 b 107 667 50 674 89 671 b 188 668 133 664 160 665 "},"›":{"ha":311,"x_min":0,"x_max":0,"o":"m 188 668 b 107 667 160 665 133 664 b 50 701 89 671 50 674 b 50 956 49 817 50 861 b 60 1021 50 978 49 1001 b 104 1044 68 1035 88 1042 b 261 1010 142 1053 233 1046 b 274 822 282 978 276 861 b 232 682 272 788 261 701 b 188 668 219 672 203 669 "},"(":{"ha":596,"x_min":0,"x_max":0,"o":"m 488 -143 b 426 -168 471 -157 449 -167 b 294 -117 381 -168 332 -144 b 376 1158 -86 175 -4 875 b 471 1156 406 1176 440 1183 b 518 1101 489 1140 503 1119 b 579 1014 542 1074 569 1049 b 542 885 594 968 567 924 b 432 693 500 826 461 767 b 561 32 343 469 401 213 b 572 -18 574 18 578 1 b 488 -143 561 -67 525 -110 "},")":{"ha":597,"x_min":0,"x_max":0,"o":"m 236 -153 b 147 -164 208 -164 176 -174 b 31 -39 96 -147 51 -90 b 35 31 24 -17 14 7 b 144 192 76 81 115 133 b 101 817 238 375 225 635 b 29 926 78 854 49 888 b 40 1057 7 972 10 1015 b 139 1165 56 1076 117 1153 b 236 1143 175 1188 203 1167 b 417 946 310 1093 374 1024 b 349 -75 586 639 625 193 b 236 -153 317 -107 278 -135 "},"*":{"ha":607,"x_min":0,"x_max":0,"o":"m 399 672 b 276 621 399 618 331 613 b 229 635 260 624 242 625 b 221 753 203 656 221 713 b 119 704 189 731 143 704 b 81 725 104 704 89 713 b 36 832 63 749 26 804 b 128 903 46 854 107 892 b 58 954 117 910 68 946 b 42 1015 43 969 32 993 b 104 1089 49 1035 88 1079 b 179 1079 128 1101 154 1097 b 213 1047 183 1075 199 1060 b 211 1103 211 1069 211 1093 b 222 1167 211 1125 208 1150 b 396 1165 250 1200 368 1211 b 401 1124 403 1153 403 1138 b 394 1060 400 1115 394 1068 b 447 1111 411 1079 428 1097 b 554 1061 490 1142 531 1103 b 568 993 567 1042 576 1014 b 467 900 556 954 506 922 b 542 847 493 886 519 869 b 565 806 553 836 564 822 b 482 701 568 774 521 690 b 389 746 469 706 403 740 b 399 672 394 722 399 697 "},"+":{"ha":960,"x_min":0,"x_max":0,"o":"m 535 36 b 361 81 482 32 399 29 b 346 224 338 118 343 172 b 349 278 346 235 346 257 b 183 272 301 274 207 272 b 93 293 153 272 118 276 b 28 467 43 325 32 408 b 93 631 22 525 36 597 b 344 642 176 681 256 642 b 335 744 338 675 336 710 b 415 903 332 813 338 883 b 664 860 474 922 633 938 b 671 744 676 824 674 783 b 667 638 669 710 667 674 b 790 636 707 639 771 638 b 885 610 822 633 860 629 b 904 321 950 554 946 394 b 860 286 894 304 878 292 b 708 276 811 271 758 276 b 669 276 703 276 681 276 b 669 125 679 232 679 156 b 535 36 651 69 597 39 "},",":{"ha":418,"x_min":0,"x_max":0,"o":"m 246 -132 b 217 -117 231 -136 219 -128 b 213 -107 215 -114 214 -111 b 204 0 210 -93 207 -35 b 74 19 164 -17 108 -7 b 29 128 47 40 32 85 b 156 299 26 207 71 268 b 375 196 239 328 335 301 b 246 -132 411 101 360 -92 "},"-":{"ha":740,"x_min":0,"x_max":0,"o":"m 521 318 b 149 310 399 331 278 313 b 68 332 121 311 90 315 b 47 518 21 371 19 463 b 118 586 61 547 88 575 b 499 597 211 618 389 606 b 697 536 553 593 671 604 b 676 356 721 481 714 403 b 619 318 663 338 642 325 b 521 318 588 310 553 313 "},".":{"ha":469,"x_min":0,"x_max":0,"o":"m 214 374 b 218 -18 517 397 488 -35 b 214 374 -43 -3 -7 349 "},"/":{"ha":663,"x_min":0,"x_max":0,"o":"m 268 -119 b 51 -89 218 -151 103 -118 b 29 92 -21 -56 15 32 b 331 963 104 399 210 667 b 417 1089 346 1003 372 1069 b 615 1056 461 1108 572 1079 b 658 875 685 1017 681 954 b 632 811 654 867 636 819 b 347 54 526 578 421 310 b 268 -119 332 -1 322 -85 "},":":{"ha":500,"x_min":0,"x_max":0,"o":"m 322 424 b 56 590 206 382 61 460 b 272 804 53 700 144 814 b 322 424 488 796 528 500 m 447 206 b 240 -18 453 88 364 -18 b 67 75 171 -17 103 15 b 225 374 -3 189 85 358 b 447 206 357 383 444 308 "},";":{"ha":494,"x_min":0,"x_max":0,"o":"m 324 424 b 232 414 294 414 263 410 b 278 806 -33 447 25 824 b 449 699 350 803 421 776 b 324 424 482 596 429 463 m 256 -132 b 222 -107 236 -137 228 -124 b 214 0 219 -93 217 -35 b 39 117 128 -33 46 28 b 236 313 33 221 131 318 b 310 -85 469 301 413 36 b 256 -132 290 -108 269 -126 "},"<":{"ha":764,"x_min":0,"x_max":0,"o":"m 274 35 b 169 21 240 25 204 17 b 119 43 151 24 133 32 b 58 250 71 83 42 190 b 138 322 69 286 103 307 b 347 406 163 335 321 393 b 303 456 393 429 321 446 b 104 561 274 469 131 542 b 53 619 83 576 64 596 b 42 694 42 642 38 669 b 119 843 51 749 83 800 b 211 861 142 868 172 878 b 336 796 253 840 294 819 b 678 578 453 728 583 675 b 735 435 715 536 735 499 b 721 306 735 392 735 347 b 585 178 706 250 635 210 b 274 35 493 118 388 68 "},"=":{"ha":703,"x_min":0,"x_max":0,"o":"m 293 488 b 176 479 254 485 215 479 b 67 526 138 479 89 483 b 51 604 56 550 50 578 b 149 760 51 668 86 750 b 485 765 235 778 383 774 b 621 744 510 764 599 758 b 660 668 644 729 657 696 b 581 488 668 607 656 507 b 463 488 543 475 501 486 b 293 488 406 490 349 490 m 292 136 b 132 129 239 135 185 124 b 75 153 111 131 89 138 b 69 356 28 200 32 300 b 126 404 82 378 103 396 b 475 414 211 438 374 422 b 639 361 526 411 610 419 b 653 271 651 333 654 301 b 558 133 649 215 626 142 b 453 138 524 128 488 136 b 292 136 399 139 346 138 "},">":{"ha":764,"x_min":0,"x_max":0,"o":"m 678 85 b 554 21 654 39 608 14 b 358 86 486 29 421 57 b 172 183 294 114 231 144 b 60 275 131 210 90 238 b 32 367 40 300 35 335 b 33 485 28 406 28 446 b 85 576 38 519 61 551 b 553 861 213 711 411 800 b 613 867 571 869 594 874 b 714 725 651 851 701 765 b 650 554 736 660 715 597 b 419 404 621 536 385 428 b 626 322 444 393 601 335 b 711 208 675 297 711 272 b 678 85 710 165 697 122 "},"?":{"ha":790,"x_min":0,"x_max":0,"o":"m 528 292 b 336 296 467 272 399 281 b 286 354 310 303 290 326 b 365 560 278 415 317 499 b 460 701 401 606 443 649 b 360 692 503 825 382 847 b 326 599 356 660 354 618 b 32 651 254 549 74 561 b 32 769 15 688 24 731 b 264 1096 64 931 144 1046 b 669 1039 388 1147 561 1131 b 671 565 810 919 769 710 b 589 383 635 508 594 449 b 528 292 586 346 572 307 m 421 235 b 397 -119 692 239 651 -129 b 421 235 128 -108 161 244 "},"@":{"ha":1272,"x_min":0,"x_max":0,"o":"m 958 -125 b 58 228 597 -246 168 -206 b 368 1010 -17 526 126 828 b 1044 1049 546 1143 846 1175 b 1213 519 1211 942 1286 714 b 821 375 1151 353 990 228 b 371 444 744 88 325 103 b 603 758 388 582 457 718 b 786 681 682 779 765 768 b 942 671 832 489 928 528 b 754 856 947 768 851 849 b 329 479 526 869 372 692 b 469 142 303 354 325 193 b 757 144 554 110 665 122 b 926 193 778 150 906 189 b 1017 163 961 201 994 192 b 1042 -56 1060 111 1075 11 b 958 -125 1026 -87 992 -110 m 599 389 b 683 497 646 375 675 461 b 626 526 693 542 657 561 b 599 389 607 507 546 400 "},"A":{"ha":990,"x_min":0,"x_max":0,"o":"m 253 -32 b 47 19 214 -54 60 -54 b 39 282 39 68 39 147 b 149 860 43 474 40 679 b 868 813 324 1140 732 1135 b 940 438 919 696 939 565 b 954 90 940 322 961 204 b 818 -32 946 3 908 -28 b 631 25 764 -32 651 -47 b 610 240 614 94 615 153 b 314 219 515 236 421 228 b 253 -32 317 154 324 10 m 457 753 b 326 494 356 743 319 553 b 336 497 329 494 332 496 b 582 519 415 515 499 522 b 457 753 589 589 546 761 "},"À":{"ha":990,"x_min":0,"x_max":0,"o":"m 253 -32 b 314 219 324 10 317 154 b 610 240 421 228 515 236 b 631 25 615 153 614 94 b 818 -32 651 -47 764 -32 b 954 90 908 -28 946 3 b 940 438 961 204 940 322 b 868 813 939 565 919 696 b 149 860 732 1135 324 1140 b 39 282 40 679 43 474 b 47 19 39 147 39 68 b 253 -32 60 -54 214 -54 m 457 753 b 582 519 546 761 589 589 b 336 497 499 522 415 515 b 326 494 332 496 329 494 b 457 753 319 553 356 743 "},"Á":{"ha":990,"x_min":0,"x_max":0,"o":"m 253 -32 b 47 19 214 -54 60 -54 b 39 282 39 68 39 147 b 149 860 43 474 40 679 b 868 813 324 1140 732 1135 b 940 438 919 696 939 565 b 954 90 940 322 961 204 b 818 -32 946 3 908 -28 b 631 25 764 -32 651 -47 b 610 240 614 94 615 153 b 314 219 515 236 421 228 b 253 -32 317 154 324 10 m 457 753 b 326 494 356 743 319 553 b 336 497 329 494 332 496 b 582 519 415 515 499 522 b 457 753 589 589 546 761 "},"Â":{"ha":990,"x_min":0,"x_max":0,"o":"m 253 -32 b 314 219 324 10 317 154 b 610 240 421 228 515 236 b 631 25 615 153 614 94 b 818 -32 651 -47 764 -32 b 954 90 908 -28 946 3 b 940 438 961 204 940 322 b 868 813 939 565 919 696 b 149 860 732 1135 324 1140 b 39 282 40 679 43 474 b 47 19 39 147 39 68 b 253 -32 60 -54 214 -54 m 457 753 b 582 519 546 761 589 589 b 336 497 499 522 415 515 b 326 494 332 496 329 494 b 457 753 319 553 356 743 "},"Ã":{"ha":990,"x_min":0,"x_max":0,"o":"m 253 -32 b 47 19 214 -54 60 -54 b 39 282 39 68 39 147 b 149 860 43 474 40 679 b 868 813 324 1140 732 1135 b 940 438 919 696 939 565 b 954 90 940 322 961 204 b 818 -32 946 3 908 -28 b 631 25 764 -32 651 -47 b 610 240 614 94 615 153 b 314 219 515 236 421 228 b 253 -32 317 154 324 10 m 457 753 b 326 494 356 743 319 553 b 336 497 329 494 332 496 b 582 519 415 515 499 522 b 457 753 589 589 546 761 "},"Ä":{"ha":990,"x_min":0,"x_max":0,"o":"m 253 -32 b 314 219 324 10 317 154 b 610 240 421 228 515 236 b 631 25 615 153 614 94 b 818 -32 651 -47 764 -32 b 954 90 908 -28 946 3 b 940 438 961 204 940 322 b 868 813 939 565 919 696 b 149 860 732 1135 324 1140 b 39 282 40 679 43 474 b 47 19 39 147 39 68 b 253 -32 60 -54 214 -54 m 457 753 b 582 519 546 761 589 589 b 336 497 499 522 415 515 b 326 494 332 496 329 494 b 457 753 319 553 356 743 "},"Å":{"ha":990,"x_min":0,"x_max":0,"o":"m 253 -32 b 47 19 214 -54 60 -54 b 39 282 39 68 39 147 b 149 860 43 474 40 679 b 868 813 324 1140 732 1135 b 940 438 919 696 939 565 b 954 90 940 322 961 204 b 818 -32 946 3 908 -28 b 631 25 764 -32 651 -47 b 610 240 614 94 615 153 b 314 219 515 236 421 228 b 253 -32 317 154 324 10 m 457 753 b 326 494 356 743 319 553 b 336 497 329 494 332 496 b 582 519 415 515 499 522 b 457 753 589 589 546 761 "},"B":{"ha":1324,"x_min":0,"x_max":0,"o":"m 964 -39 b 440 -101 800 -101 615 -121 b 206 -25 358 -93 271 -76 b 210 240 135 31 118 188 b 367 268 231 254 363 239 b 332 679 376 342 393 543 b 204 650 292 664 249 650 b 4 833 104 646 21 731 b 6 883 1 850 3 867 b 179 1063 15 971 106 1026 b 1114 1079 424 1175 875 1247 b 1043 546 1325 939 1240 663 b 1164 515 1085 540 1125 531 b 1281 214 1276 474 1342 329 b 964 -39 1221 97 1089 8 m 622 810 b 642 601 608 775 639 639 b 856 746 719 619 825 660 b 826 839 868 781 860 825 b 632 815 769 863 688 842 b 622 810 631 814 624 811 m 661 382 b 665 236 657 335 663 285 b 863 303 731 246 806 263 b 849 385 889 329 892 368 b 661 382 807 400 700 401 "},"C":{"ha":969,"x_min":0,"x_max":0,"o":"m 678 -42 b 107 174 464 -89 228 -29 b 96 831 1 351 10 631 b 526 1135 168 993 344 1118 b 910 936 667 1147 847 1083 b 826 524 969 806 944 575 b 563 553 753 492 606 479 b 557 686 543 588 550 636 b 497 803 565 739 581 808 b 363 697 440 799 389 751 b 374 344 308 596 301 446 b 721 303 456 229 604 244 b 839 308 756 319 803 324 b 893 81 926 271 953 165 b 678 -42 840 17 758 -24 "},"Ç":{"ha":969,"x_min":0,"x_max":0,"o":"m 678 -42 b 893 81 758 -24 840 17 b 839 308 953 165 926 271 b 721 303 803 324 756 319 b 374 344 604 244 456 229 b 363 697 301 446 308 596 b 497 803 389 751 440 799 b 557 686 581 808 565 739 b 563 553 550 636 543 588 b 826 524 606 479 753 492 b 910 936 944 575 969 806 b 526 1135 847 1083 667 1147 b 96 831 344 1118 168 993 b 107 174 10 631 1 351 b 678 -42 228 -29 464 -89 "},"D":{"ha":1125,"x_min":0,"x_max":0,"o":"m 858 1051 b 899 72 1169 860 1178 308 b 258 -64 733 -68 489 -111 b 161 -29 225 -58 190 -49 b 111 38 139 -14 119 8 b 108 165 99 78 100 122 b 247 260 124 229 181 260 b 208 721 215 410 224 565 b 92 704 174 704 132 683 b 21 783 60 721 33 750 b 22 940 4 828 0 890 b 200 1086 50 1010 129 1054 b 858 1051 396 1175 668 1169 m 596 797 b 536 275 400 797 549 338 b 758 436 647 293 728 350 b 596 797 801 563 758 789 "},"E":{"ha":913,"x_min":0,"x_max":0,"o":"m 849 43 b 460 -115 794 -81 593 -114 b 83 94 300 -115 126 -93 b 139 806 39 310 79 592 b 71 824 115 807 90 811 b 42 1025 11 856 19 965 b 114 1094 54 1060 81 1083 b 306 1096 175 1114 242 1096 b 857 1057 421 1096 767 1178 b 836 754 918 990 908 815 b 682 719 797 722 743 710 b 396 769 575 738 400 783 b 429 647 390 742 386 651 b 486 650 447 646 468 647 b 649 657 521 657 618 675 b 664 418 708 621 711 471 b 475 385 622 369 533 376 b 390 368 451 389 390 411 b 413 257 390 331 393 289 b 564 240 444 210 518 224 b 821 279 636 261 750 350 b 849 43 871 224 885 117 "},"È":{"ha":913,"x_min":0,"x_max":0,"o":"m 849 43 b 821 279 885 117 871 224 b 564 240 750 350 636 261 b 413 257 518 224 444 210 b 390 368 393 289 390 331 b 475 385 390 411 451 389 b 664 418 533 376 622 369 b 649 657 711 471 708 621 b 486 650 618 675 521 657 b 429 647 468 647 447 646 b 396 769 386 651 390 742 b 682 719 400 783 575 738 b 836 754 743 710 797 722 b 857 1057 908 815 918 990 b 306 1096 767 1178 421 1096 b 114 1094 242 1096 175 1114 b 42 1025 81 1083 54 1060 b 71 824 19 965 11 856 b 139 806 90 811 115 807 b 83 94 79 592 39 310 b 460 -115 126 -93 300 -115 b 849 43 593 -114 794 -81 "},"É":{"ha":913,"x_min":0,"x_max":0,"o":"m 849 43 b 460 -115 794 -81 593 -114 b 83 94 300 -115 126 -93 b 139 806 39 310 79 592 b 71 824 115 807 90 811 b 42 1025 11 856 19 965 b 114 1094 54 1060 81 1083 b 306 1096 175 1114 242 1096 b 857 1057 421 1096 767 1178 b 836 754 918 990 908 815 b 682 719 797 722 743 710 b 396 769 575 738 400 783 b 429 647 390 742 386 651 b 486 650 447 646 468 647 b 649 657 521 657 618 675 b 664 418 708 621 711 471 b 475 385 622 369 533 376 b 390 368 451 389 390 411 b 413 257 390 331 393 289 b 564 240 444 210 518 224 b 821 279 636 261 750 350 b 849 43 871 224 885 117 "},"Ê":{"ha":913,"x_min":0,"x_max":0,"o":"m 849 43 b 821 279 885 117 871 224 b 564 240 750 350 636 261 b 413 257 518 224 444 210 b 390 368 393 289 390 331 b 475 385 390 411 451 389 b 664 418 533 376 622 369 b 649 657 711 471 708 621 b 486 650 618 675 521 657 b 429 647 468 647 447 646 b 396 769 386 651 390 742 b 682 719 400 783 575 738 b 836 754 743 710 797 722 b 857 1057 908 815 918 990 b 306 1096 767 1178 421 1096 b 114 1094 242 1096 175 1114 b 42 1025 81 1083 54 1060 b 71 824 19 965 11 856 b 139 806 90 811 115 807 b 83 94 79 592 39 310 b 460 -115 126 -93 300 -115 b 849 43 593 -114 794 -81 "},"Ë":{"ha":913,"x_min":0,"x_max":0,"o":"m 849 43 b 460 -115 794 -81 593 -114 b 83 94 300 -115 126 -93 b 139 806 39 310 79 592 b 71 824 115 807 90 811 b 42 1025 11 856 19 965 b 114 1094 54 1060 81 1083 b 306 1096 175 1114 242 1096 b 857 1057 421 1096 767 1178 b 836 754 918 990 908 815 b 682 719 797 722 743 710 b 396 769 575 738 400 783 b 429 647 390 742 386 651 b 486 650 447 646 468 647 b 649 657 521 657 618 675 b 664 418 708 621 711 471 b 475 385 622 369 533 376 b 390 368 451 389 390 411 b 413 257 390 331 393 289 b 564 240 444 210 518 224 b 821 279 636 261 750 350 b 849 43 871 224 885 117 "},"F":{"ha":901,"x_min":0,"x_max":0,"o":"m 401 -68 b 188 -42 336 -83 235 -97 b 129 235 151 3 131 176 b 150 724 124 397 136 561 b 32 771 114 728 54 735 b 13 846 18 793 14 821 b 118 1025 7 929 29 996 b 438 1065 211 1056 318 1057 b 731 1088 533 1074 629 1085 b 879 1003 790 1090 857 1068 b 892 904 889 972 893 938 b 731 751 892 814 826 756 b 524 774 703 751 551 771 b 460 726 475 776 454 783 b 471 646 460 713 464 658 b 733 669 557 646 640 682 b 822 456 840 657 833 540 b 697 369 813 400 760 372 b 511 371 639 369 575 383 b 515 67 463 364 514 113 b 476 -42 518 29 511 -15 b 401 -68 456 -57 428 -62 "},"G":{"ha":1038,"x_min":0,"x_max":0,"o":"m 929 -82 b 751 -140 900 -125 804 -150 b 689 -104 728 -136 701 -125 b 668 -43 678 -86 672 -65 b 369 -33 571 -64 465 -64 b 31 525 122 33 26 282 b 478 1124 40 808 165 1076 b 910 936 631 1146 839 1104 b 744 569 967 811 935 576 b 628 594 703 568 660 579 b 571 686 593 614 571 642 b 497 803 571 739 571 807 b 363 697 440 799 389 751 b 546 253 276 538 325 264 b 488 294 525 265 506 281 b 461 392 463 317 454 360 b 576 492 474 449 519 500 b 983 433 661 474 926 550 b 961 128 1017 376 1035 169 b 893 101 946 118 918 107 b 943 -37 911 60 942 11 b 929 -82 943 -53 939 -68 "},"H":{"ha":1081,"x_min":0,"x_max":0,"o":"m 925 -53 b 722 -57 864 -71 789 -74 b 649 15 683 -49 661 -21 b 642 361 619 96 626 269 b 576 350 615 357 586 351 b 465 344 563 349 507 346 b 474 47 474 279 483 104 b 288 -60 460 -29 372 -64 b 154 -14 240 -56 192 -51 b 85 158 113 28 96 100 b 51 771 47 358 49 560 b 104 992 54 832 56 943 b 163 1021 119 1007 142 1017 b 379 1004 225 1036 317 1039 b 464 789 450 960 463 875 b 463 613 469 732 463 675 b 463 606 463 610 463 607 b 643 619 522 615 582 615 b 679 975 638 700 646 888 b 710 1022 685 993 694 1011 b 796 1051 735 1040 767 1047 b 1032 936 876 1061 1006 1024 b 1011 685 1054 867 1024 754 b 994 451 1000 607 994 529 b 1022 151 993 351 1010 251 b 1018 25 1028 108 1035 63 b 925 -53 1003 -12 963 -39 "},"I":{"ha":663,"x_min":0,"x_max":0,"o":"m 200 -69 b 93 -62 164 -74 128 -72 b 32 33 51 -50 35 -10 b 33 117 29 61 31 89 b 75 169 36 142 50 161 b 172 175 92 175 144 176 b 176 801 118 382 150 585 b 100 793 151 799 110 793 b 31 861 60 793 40 825 b 21 936 24 886 21 911 b 47 1033 21 969 24 1008 b 240 1082 89 1075 174 1081 b 576 1050 311 1082 503 1096 b 617 882 631 1019 628 939 b 553 806 613 850 594 810 b 488 801 543 804 514 803 b 497 197 488 608 494 415 b 625 176 531 200 601 217 b 618 -22 656 126 654 25 b 418 -51 578 -74 481 -53 b 200 -69 344 -50 272 -62 "},"Ì":{"ha":663,"x_min":0,"x_max":0,"o":"m 200 -69 b 418 -51 272 -62 344 -50 b 618 -22 481 -53 578 -74 b 625 176 654 25 656 126 b 497 197 601 217 531 200 b 488 801 494 415 488 608 b 553 806 514 803 543 804 b 617 882 594 810 613 850 b 576 1050 628 939 631 1019 b 240 1082 503 1096 311 1082 b 47 1033 174 1081 89 1075 b 21 936 24 1008 21 969 b 31 861 21 911 24 886 b 100 793 40 825 60 793 b 176 801 110 793 151 799 b 172 175 150 585 118 382 b 75 169 144 176 92 175 b 33 117 50 161 36 142 b 32 33 31 89 29 61 b 93 -62 35 -10 51 -50 b 200 -69 128 -72 164 -74 "},"Í":{"ha":663,"x_min":0,"x_max":0,"o":"m 200 -69 b 93 -62 164 -74 128 -72 b 32 33 51 -50 35 -10 b 33 117 29 61 31 89 b 75 169 36 142 50 161 b 172 175 92 175 144 176 b 176 801 118 382 150 585 b 100 793 151 799 110 793 b 31 861 60 793 40 825 b 21 936 24 886 21 911 b 47 1033 21 969 24 1008 b 240 1082 89 1075 174 1081 b 576 1050 311 1082 503 1096 b 617 882 631 1019 628 939 b 553 806 613 850 594 810 b 488 801 543 804 514 803 b 497 197 488 608 494 415 b 625 176 531 200 601 217 b 618 -22 656 126 654 25 b 418 -51 578 -74 481 -53 b 200 -69 344 -50 272 -62 "},"Î":{"ha":663,"x_min":0,"x_max":0,"o":"m 200 -69 b 418 -51 272 -62 344 -50 b 618 -22 481 -53 578 -74 b 625 176 654 25 656 126 b 497 197 601 217 531 200 b 488 801 494 415 488 608 b 553 806 514 803 543 804 b 617 882 594 810 613 850 b 576 1050 628 939 631 1019 b 240 1082 503 1096 311 1082 b 47 1033 174 1081 89 1075 b 21 936 24 1008 21 969 b 31 861 21 911 24 886 b 100 793 40 825 60 793 b 176 801 110 793 151 799 b 172 175 150 585 118 382 b 75 169 144 176 92 175 b 33 117 50 161 36 142 b 32 33 31 89 29 61 b 93 -62 35 -10 51 -50 b 200 -69 128 -72 164 -74 "},"Ï":{"ha":663,"x_min":0,"x_max":0,"o":"m 200 -69 b 93 -62 164 -74 128 -72 b 32 33 51 -50 35 -10 b 33 117 29 61 31 89 b 75 169 36 142 50 161 b 172 175 92 175 144 176 b 176 801 118 382 150 585 b 100 793 151 799 110 793 b 31 861 60 793 40 825 b 21 936 24 886 21 911 b 47 1033 21 969 24 1008 b 240 1082 89 1075 174 1081 b 576 1050 311 1082 503 1096 b 617 882 631 1019 628 939 b 553 806 613 850 594 810 b 488 801 543 804 514 803 b 497 197 488 608 494 415 b 625 176 531 200 601 217 b 618 -22 656 126 654 25 b 418 -51 578 -74 481 -53 b 200 -69 344 -50 272 -62 "},"J":{"ha":1028,"x_min":0,"x_max":0,"o":"m 786 1 b 125 28 607 -147 306 -128 b 18 189 75 69 38 126 b 233 479 -25 332 71 479 b 354 383 297 479 328 431 b 582 329 414 263 518 264 b 618 853 681 428 647 726 b 413 760 546 843 482 790 b 194 872 324 725 224 774 b 272 1064 171 949 203 1024 b 750 1132 399 1136 593 1136 b 982 1057 824 1132 926 1118 b 964 921 1021 1013 1021 938 b 929 892 935 911 929 936 b 954 690 939 825 951 758 b 957 572 954 676 957 588 b 786 1 960 394 944 129 "},"K":{"ha":961,"x_min":0,"x_max":0,"o":"m 271 -94 b 128 14 203 -94 154 -54 b 54 801 46 221 39 540 b 176 1096 61 889 64 1065 b 278 1100 208 1106 244 1104 b 389 1069 315 1094 354 1086 b 449 885 454 1035 458 956 b 422 754 442 840 432 797 b 829 903 526 826 688 918 b 897 864 857 900 881 889 b 935 717 914 839 935 747 b 921 679 933 703 929 689 b 631 558 875 629 703 586 b 874 433 704 515 796 485 b 928 368 896 417 921 396 b 882 207 940 321 914 244 b 703 190 842 161 758 165 b 438 375 621 225 549 288 b 456 50 451 267 456 163 b 376 -74 453 -6 435 -51 b 271 -94 343 -87 307 -94 "},"L":{"ha":751,"x_min":0,"x_max":0,"o":"m 693 69 b 231 -58 600 3 353 -61 b 51 192 92 -56 63 69 b 60 597 38 326 46 463 b 138 1006 74 736 86 878 b 260 1092 158 1056 200 1094 b 444 1024 324 1089 403 1074 b 467 856 476 986 469 906 b 364 267 454 660 394 471 b 699 315 446 311 622 369 b 749 167 742 289 754 221 b 693 69 744 125 725 96 "},"M":{"ha":1383,"x_min":0,"x_max":0,"o":"m 519 -4 b 336 -86 489 -62 400 -89 b 240 -58 303 -85 268 -76 b 89 957 -4 89 -17 739 b 128 1021 100 979 113 1001 b 317 1113 171 1076 247 1111 b 653 811 490 1119 594 971 b 1257 939 713 1053 1096 1207 b 1324 742 1293 881 1314 810 b 1271 101 1347 564 1364 285 b 1085 -39 1240 39 1172 -46 b 940 114 1003 -35 935 32 b 986 274 943 169 971 221 b 1040 494 1007 346 1028 419 b 819 488 1097 847 888 725 b 756 269 799 415 793 338 b 586 254 722 213 632 200 b 558 321 569 272 564 297 b 499 569 539 403 526 489 b 400 518 431 765 354 689 b 494 239 422 422 463 332 b 519 -4 518 169 560 71 "},"N":{"ha":1031,"x_min":0,"x_max":0,"o":"m 340 -49 b 167 -57 288 -67 224 -69 b 128 -43 153 -54 139 -51 b 78 168 83 -14 82 115 b 47 606 71 311 51 454 b 69 871 43 686 28 792 b 247 963 100 929 182 949 b 382 906 299 972 342 950 b 672 365 494 781 576 542 b 660 843 676 428 663 781 b 689 1054 660 894 635 1015 b 892 1081 732 1083 844 1099 b 978 829 976 1046 976 910 b 968 314 985 657 979 485 b 911 49 961 228 956 131 b 757 -39 879 -4 824 -33 b 607 19 693 -47 647 -33 b 375 397 522 136 454 269 b 403 79 388 281 401 122 b 340 -49 403 24 401 -24 "},"Ñ":{"ha":1031,"x_min":0,"x_max":0,"o":"m 340 -49 b 403 79 401 -24 403 24 b 375 397 401 122 388 281 b 607 19 454 269 522 136 b 757 -39 647 -33 693 -47 b 911 49 824 -33 879 -4 b 968 314 956 131 961 228 b 978 829 979 485 985 657 b 892 1081 976 910 976 1046 b 689 1054 844 1099 732 1083 b 660 843 635 1015 660 894 b 672 365 663 781 676 428 b 382 906 576 542 494 781 b 247 963 342 950 299 972 b 69 871 182 949 100 929 b 47 606 28 792 43 686 b 78 168 51 454 71 311 b 128 -43 82 115 83 -14 b 167 -57 139 -51 153 -54 b 340 -49 224 -69 288 -67 "},"O":{"ha":1071,"x_min":0,"x_max":0,"o":"m 875 83 b 497 -57 772 -14 636 -60 b 124 111 326 -53 201 10 b 140 806 -6 281 -3 628 b 290 911 179 853 231 897 b 651 1074 314 1082 504 1117 b 957 833 779 1038 890 950 b 875 83 1093 608 1072 276 m 390 640 b 515 229 251 525 308 215 b 539 778 775 247 815 735 b 390 640 528 690 451 688 "},"Ò":{"ha":1071,"x_min":0,"x_max":0,"o":"m 875 83 b 957 833 1072 276 1093 608 b 651 1074 890 950 779 1038 b 290 911 504 1117 314 1082 b 140 806 231 897 179 853 b 124 111 -3 628 -6 281 b 497 -57 201 10 326 -53 b 875 83 636 -60 772 -14 m 390 640 b 539 778 451 688 528 690 b 515 229 815 735 775 247 b 390 640 308 215 251 525 "},"Ó":{"ha":1071,"x_min":0,"x_max":0,"o":"m 875 83 b 497 -57 772 -14 636 -60 b 124 111 326 -53 201 10 b 140 806 -6 281 -3 628 b 290 911 179 853 231 897 b 651 1074 314 1082 504 1117 b 957 833 779 1038 890 950 b 875 83 1093 608 1072 276 m 390 640 b 515 229 251 525 308 215 b 539 778 775 247 815 735 b 390 640 528 690 451 688 "},"Ô":{"ha":1071,"x_min":0,"x_max":0,"o":"m 875 83 b 957 833 1072 276 1093 608 b 651 1074 890 950 779 1038 b 290 911 504 1117 314 1082 b 140 806 231 897 179 853 b 124 111 -3 628 -6 281 b 497 -57 201 10 326 -53 b 875 83 636 -60 772 -14 m 390 640 b 539 778 451 688 528 690 b 515 229 815 735 775 247 b 390 640 308 215 251 525 "},"Õ":{"ha":1071,"x_min":0,"x_max":0,"o":"m 875 83 b 497 -57 772 -14 636 -60 b 124 111 326 -53 201 10 b 140 806 -6 281 -3 628 b 290 911 179 853 231 897 b 651 1074 314 1082 504 1117 b 957 833 779 1038 890 950 b 875 83 1093 608 1072 276 m 390 640 b 515 229 251 525 308 215 b 539 778 775 247 815 735 b 390 640 528 690 451 688 "},"Ö":{"ha":1071,"x_min":0,"x_max":0,"o":"m 875 83 b 957 833 1072 276 1093 608 b 651 1074 890 950 779 1038 b 290 911 504 1117 314 1082 b 140 806 231 897 179 853 b 124 111 -3 628 -6 281 b 497 -57 201 10 326 -53 b 875 83 636 -60 772 -14 m 390 640 b 539 778 451 688 528 690 b 515 229 815 735 775 247 b 390 640 308 215 251 525 "},"Ø":{"ha":1071,"x_min":0,"x_max":0,"o":"m 875 83 b 497 -57 772 -14 636 -60 b 124 111 326 -53 201 10 b 140 806 -6 281 -3 628 b 290 911 179 853 231 897 b 651 1074 314 1082 504 1117 b 957 833 779 1038 890 950 b 875 83 1093 608 1072 276 m 390 640 b 515 229 251 525 308 215 b 539 778 775 247 815 735 b 390 640 528 690 451 688 "},"P":{"ha":1114,"x_min":0,"x_max":0,"o":"m 311 -67 b 156 142 199 -74 169 47 b 186 774 129 339 156 575 b 106 753 160 764 133 753 b 28 815 72 751 40 785 b 4 940 13 854 3 897 b 18 999 4 960 7 982 b 338 1135 64 1079 250 1118 b 849 1126 486 1161 689 1183 b 875 450 1163 1015 1193 599 b 496 397 758 393 625 393 b 503 325 497 372 500 349 b 529 90 507 293 529 124 b 456 -35 529 38 510 -11 b 311 -67 410 -54 360 -65 m 493 685 b 669 694 546 671 611 681 b 661 869 799 731 789 854 b 497 836 622 874 525 864 b 482 693 475 817 481 729 b 493 685 482 689 489 686 "},"Q":{"ha":1089,"x_min":0,"x_max":0,"o":"m 1017 -137 b 763 -111 928 -207 829 -221 b 718 -18 744 -82 732 -49 b 482 -56 649 -46 567 -58 b 40 554 124 -42 -15 229 b 290 911 63 696 135 867 b 460 1083 303 1006 363 1068 b 846 965 600 1110 739 1058 b 1019 331 1019 815 1083 560 b 922 138 1000 261 967 194 b 1038 43 957 103 1001 76 b 1017 -137 1096 -3 1072 -93 m 390 640 b 506 229 250 524 310 221 b 539 778 808 242 822 719 b 496 699 536 749 519 717 b 390 640 465 675 422 665 "},"R":{"ha":1140,"x_min":0,"x_max":0,"o":"m 311 -67 b 161 114 211 -71 175 28 b 179 738 138 311 146 533 b 186 774 181 744 183 758 b 28 815 122 751 61 733 b 4 940 13 854 3 897 b 18 999 4 960 7 982 b 75 1049 31 1021 53 1035 b 225 1106 94 1060 201 1099 b 1018 1008 464 1178 824 1224 b 939 513 1174 838 1108 628 b 797 447 897 485 850 463 b 1078 268 886 356 996 324 b 1094 144 1124 238 1114 193 b 989 -6 1071 89 1035 35 b 840 -17 944 -39 897 -39 b 508 283 715 33 588 163 b 529 90 518 214 529 115 b 456 -35 529 38 510 -11 b 311 -67 410 -54 360 -65 m 481 767 b 581 658 476 682 485 644 b 604 868 733 672 872 888 b 497 836 557 865 514 853 b 481 767 486 826 482 782 "},"S":{"ha":974,"x_min":0,"x_max":0,"o":"m 657 -39 b 99 71 500 -94 211 -89 b 157 244 60 133 90 213 b 250 257 185 258 219 265 b 365 199 292 244 326 218 b 526 186 401 181 472 172 b 533 315 611 206 633 290 b 407 333 492 325 449 329 b 24 644 240 350 32 443 b 540 1103 10 900 282 1110 b 822 1006 640 1100 742 1069 b 953 744 896 950 947 843 b 939 661 954 717 951 688 b 765 590 901 581 844 589 b 614 639 710 594 643 576 b 597 733 601 668 601 701 b 465 815 592 800 536 840 b 376 615 374 786 307 682 b 467 574 400 593 433 581 b 650 542 528 561 589 556 b 817 449 713 528 776 499 b 657 -39 953 286 865 31 "},"T":{"ha":889,"x_min":0,"x_max":0,"o":"m 490 -67 b 238 38 399 -81 278 -68 b 286 756 176 199 214 525 b 160 738 246 753 206 738 b 1 865 61 735 17 765 b 113 1039 -8 936 33 1021 b 454 1028 224 1067 340 1031 b 683 1042 531 1025 607 1035 b 863 1011 735 1049 819 1064 b 871 821 899 965 904 869 b 704 764 836 768 764 761 b 594 732 649 769 617 792 b 632 219 560 601 565 346 b 639 8 669 151 701 78 b 490 -67 603 -33 544 -60 "},"U":{"ha":932,"x_min":0,"x_max":0,"o":"m 715 1069 b 814 1032 744 1078 789 1063 b 899 529 906 917 906 665 b 465 -25 883 260 775 -25 b 46 682 82 -25 11 375 b 100 983 57 786 76 914 b 174 1060 115 1024 140 1049 b 311 1058 210 1072 257 1074 b 421 931 421 1026 432 999 b 367 535 397 789 372 661 b 607 538 361 229 617 242 b 564 931 604 667 569 793 b 576 972 563 944 568 961 b 715 1069 604 1014 668 1058 "},"Ù":{"ha":932,"x_min":0,"x_max":0,"o":"m 715 1069 b 576 972 668 1058 604 1014 b 564 931 568 961 563 944 b 607 538 569 793 604 667 b 367 535 617 242 361 229 b 421 931 372 661 397 789 b 311 1058 432 999 421 1026 b 174 1060 257 1074 210 1072 b 100 983 140 1049 115 1024 b 46 682 76 914 57 786 b 465 -25 11 375 82 -25 b 899 529 775 -25 883 260 b 814 1032 906 665 906 917 b 715 1069 789 1063 744 1078 "},"Ú":{"ha":932,"x_min":0,"x_max":0,"o":"m 715 1069 b 814 1032 744 1078 789 1063 b 899 529 906 917 906 665 b 465 -25 883 260 775 -25 b 46 682 82 -25 11 375 b 100 983 57 786 76 914 b 174 1060 115 1024 140 1049 b 311 1058 210 1072 257 1074 b 421 931 421 1026 432 999 b 367 535 397 789 372 661 b 607 538 361 229 617 242 b 564 931 604 667 569 793 b 576 972 563 944 568 961 b 715 1069 604 1014 668 1058 "},"Û":{"ha":932,"x_min":0,"x_max":0,"o":"m 715 1069 b 576 972 668 1058 604 1014 b 564 931 568 961 563 944 b 607 538 569 793 604 667 b 367 535 617 242 361 229 b 421 931 372 661 397 789 b 311 1058 432 999 421 1026 b 174 1060 257 1074 210 1072 b 100 983 140 1049 115 1024 b 46 682 76 914 57 786 b 465 -25 11 375 82 -25 b 899 529 775 -25 883 260 b 814 1032 906 665 906 917 b 715 1069 789 1063 744 1078 "},"Ü":{"ha":932,"x_min":0,"x_max":0,"o":"m 715 1069 b 814 1032 744 1078 789 1063 b 899 529 906 917 906 665 b 465 -25 883 260 775 -25 b 46 682 82 -25 11 375 b 100 983 57 786 76 914 b 174 1060 115 1024 140 1049 b 311 1058 210 1072 257 1074 b 421 931 421 1026 432 999 b 367 535 397 789 372 661 b 607 538 361 229 617 242 b 564 931 604 667 569 793 b 576 972 563 944 568 961 b 715 1069 604 1014 668 1058 "},"V":{"ha":996,"x_min":0,"x_max":0,"o":"m 636 -17 b 338 -11 554 -72 425 -54 b 278 47 313 1 292 22 b 199 274 261 76 210 242 b 22 867 129 472 83 667 b 8 974 10 899 -6 938 b 239 1069 38 1046 157 1068 b 308 1043 264 1067 289 1058 b 379 924 344 1014 365 967 b 514 365 442 743 457 550 b 714 878 571 535 626 703 b 847 1014 742 931 772 1014 b 990 956 894 1014 974 1000 b 932 783 1004 917 982 885 b 736 183 840 599 789 386 b 636 -17 718 117 700 26 "},"W":{"ha":1382,"x_min":0,"x_max":0,"o":"m 653 217 b 301 -85 589 71 494 -104 b 193 1056 -129 -40 35 814 b 478 1074 240 1126 403 1125 b 528 1010 500 1058 521 1036 b 508 831 544 951 528 888 b 399 510 472 724 425 619 b 507 440 338 246 458 244 b 576 761 522 511 539 701 b 781 764 610 810 756 831 b 790 699 788 744 789 722 b 821 485 796 626 796 547 b 1040 535 925 221 1060 340 b 986 753 1035 606 1010 674 b 939 926 969 811 938 867 b 1129 1061 943 1019 1039 1088 b 1285 892 1204 1040 1256 965 b 1307 210 1356 713 1363 404 b 714 92 1226 -76 918 -157 b 656 204 686 125 665 164 b 653 217 656 206 654 211 "},"X":{"ha":982,"x_min":0,"x_max":0,"o":"m 151 -37 b 25 47 99 -40 35 -6 b 42 179 17 92 26 138 b 208 481 81 289 144 383 b 60 922 165 574 21 801 b 81 964 64 938 71 951 b 185 1042 108 997 147 1021 b 421 1000 267 1083 379 1122 b 483 783 447 932 461 857 b 654 992 529 860 585 929 b 956 918 742 1081 897 1014 b 928 750 990 860 982 797 b 617 469 826 656 722 565 b 740 285 651 404 693 342 b 867 101 779 238 871 175 b 751 -29 864 50 801 -14 b 681 -22 729 -36 703 -32 b 383 231 571 24 467 136 b 265 76 343 178 278 94 b 192 -21 243 43 224 4 b 151 -37 181 -31 165 -36 "},"Y":{"ha":943,"x_min":0,"x_max":0,"o":"m 456 -37 b 229 64 381 -37 246 -42 b 300 389 219 143 254 290 b 22 803 188 503 75 636 b 60 983 1 875 -21 942 b 135 1019 83 997 110 1007 b 221 1047 163 1032 192 1043 b 326 997 267 1056 304 1043 b 433 682 376 899 378 779 b 604 985 472 793 526 900 b 739 1068 640 1024 686 1063 b 921 940 815 1078 883 1004 b 940 832 939 908 951 867 b 722 599 913 743 788 660 b 574 283 606 490 561 454 b 586 49 575 249 592 82 b 456 -37 579 -11 521 -32 "},"Ý":{"ha":943,"x_min":0,"x_max":0,"o":"m 456 -37 b 586 49 521 -32 579 -11 b 574 283 592 82 575 249 b 722 599 561 454 606 490 b 940 832 788 660 913 743 b 921 940 951 867 939 908 b 739 1068 883 1004 815 1078 b 604 985 686 1063 640 1024 b 433 682 526 900 472 793 b 326 997 378 779 376 899 b 221 1047 304 1043 267 1056 b 135 1019 192 1043 163 1032 b 60 983 110 1007 83 997 b 22 803 -21 942 1 875 b 300 389 75 636 188 503 b 229 64 254 290 219 143 b 456 -37 246 -42 381 -37 "},"Ÿ":{"ha":943,"x_min":0,"x_max":0,"o":"m 456 -37 b 229 64 381 -37 246 -42 b 300 389 219 143 254 290 b 22 803 188 503 75 636 b 60 983 1 875 -21 942 b 135 1019 83 997 110 1007 b 221 1047 163 1032 192 1043 b 326 997 267 1056 304 1043 b 433 682 376 899 378 779 b 604 985 472 793 526 900 b 739 1068 640 1024 686 1063 b 921 940 815 1078 883 1004 b 940 832 939 908 951 867 b 722 599 913 743 788 660 b 574 283 606 490 561 454 b 586 49 575 249 592 82 b 456 -37 579 -11 521 -32 "},"Z":{"ha":901,"x_min":0,"x_max":0,"o":"m 743 6 b 424 1 644 -1 532 -4 b 165 43 343 6 244 10 b 74 364 22 103 17 246 b 485 735 147 515 310 588 b 301 693 424 726 361 711 b 151 654 251 678 203 657 b 75 678 125 653 96 661 b 44 888 29 717 28 829 b 76 946 51 908 63 929 b 744 1054 199 1085 572 1100 b 871 879 831 1031 865 974 b 804 635 875 794 863 707 b 485 376 767 588 531 415 b 500 279 419 318 376 288 b 685 272 569 274 654 274 b 815 263 706 272 796 269 b 849 232 829 257 843 246 b 843 64 867 196 860 100 b 743 6 824 29 789 8 "},"[":{"ha":671,"x_min":0,"x_max":0,"o":"m 488 -160 b 319 -160 432 -162 375 -161 b 101 -119 274 -157 136 -150 b 61 97 44 -69 64 28 b 76 756 51 324 76 522 b 81 1064 78 796 76 1024 b 301 1190 90 1201 179 1197 b 417 1181 317 1190 403 1181 b 583 1181 439 1179 560 1185 b 646 1135 614 1175 633 1161 b 660 957 672 1083 668 1017 b 639 904 657 939 653 917 b 585 885 625 892 604 886 b 426 893 532 879 479 889 b 411 893 421 894 413 899 b 383 543 394 840 383 599 b 385 221 383 503 382 261 b 425 149 385 188 372 149 b 596 140 458 149 568 157 b 622 103 610 132 618 117 b 631 36 628 82 629 58 b 624 -78 632 -1 632 -40 b 585 -140 618 -103 607 -129 b 488 -160 556 -157 521 -160 "},"\\":{"ha":663,"x_min":0,"x_max":0,"o":"m 603 -94 b 390 -118 551 -119 438 -150 b 350 -61 371 -104 358 -82 b 313 63 333 -21 324 21 b 215 357 283 161 249 258 b 4 875 157 528 54 713 b 8 1025 -10 919 -28 982 b 133 1085 38 1061 89 1076 b 289 1047 194 1099 251 1107 b 324 981 303 1025 314 1003 b 639 68 458 665 549 390 b 603 -94 654 6 667 -56 "},"]":{"ha":671,"x_min":0,"x_max":0,"o":"m 585 -86 b 328 -154 547 -185 424 -162 b 251 -149 301 -153 276 -149 b 24 -86 182 -149 56 -183 b 17 -65 21 -79 18 -72 b 43 131 8 -26 1 100 b 110 147 63 143 88 146 b 249 138 156 147 203 142 b 264 138 253 138 263 133 b 288 536 282 199 289 472 b 276 881 286 589 290 831 b 133 879 257 885 153 879 b 78 886 115 879 96 879 b 49 915 65 890 56 903 b 47 1132 28 960 31 1086 b 72 1167 53 1146 61 1158 b 311 1192 111 1196 261 1193 b 561 1156 363 1192 521 1188 b 601 1074 585 1138 597 1104 b 608 881 610 1010 601 946 b 599 8 622 601 603 294 b 585 -86 597 -24 596 -57 "},"^":{"ha":725,"x_min":0,"x_max":0,"o":"m 300 604 b 193 556 279 563 239 553 b 29 624 151 558 54 590 b 39 688 18 640 28 664 b 304 1081 85 779 214 1022 b 388 1094 328 1096 360 1097 b 471 1083 415 1090 444 1094 b 519 1033 492 1074 507 1053 b 699 685 576 931 661 806 b 694 653 701 675 699 663 b 519 575 672 607 571 579 b 443 621 483 572 463 592 b 371 776 414 669 394 724 b 300 604 357 742 313 625 "},"_":{"ha":886,"x_min":0,"x_max":0,"o":"m 272 -199 b 99 -206 214 -201 156 -211 b -3 -96 38 -201 3 -160 b 107 72 -7 -22 32 64 b 786 72 244 103 631 89 b 876 -36 840 68 872 28 b 764 -201 881 -106 849 -193 b 689 -199 739 -203 714 -201 b 272 -199 631 -190 331 -197 "},"a":{"ha":944,"x_min":0,"x_max":0,"o":"m 675 -35 b 38 138 503 -65 125 -62 b 19 265 21 178 15 222 b 233 499 36 375 124 467 b 619 463 361 536 499 526 b 618 544 621 490 621 517 b 482 676 613 625 583 713 b 246 582 450 663 281 590 b 96 635 189 567 124 574 b 97 788 75 683 71 735 b 388 956 150 881 278 940 b 889 672 608 988 822 910 b 675 -35 946 465 967 13 m 449 301 b 426 183 307 332 254 197 b 449 301 540 174 563 283 "},"à":{"ha":944,"x_min":0,"x_max":0,"o":"m 675 -35 b 889 672 967 13 946 465 b 388 956 822 910 608 988 b 97 788 278 940 150 881 b 96 635 71 735 75 683 b 246 582 124 574 189 567 b 482 676 281 590 450 663 b 618 544 583 713 613 625 b 619 463 621 517 621 490 b 233 499 499 526 361 536 b 19 265 124 467 36 375 b 38 138 15 222 21 178 b 675 -35 125 -62 503 -65 m 449 301 b 426 183 563 283 540 174 b 449 301 254 197 307 332 "},"á":{"ha":944,"x_min":0,"x_max":0,"o":"m 675 -35 b 38 138 503 -65 125 -62 b 19 265 21 178 15 222 b 233 499 36 375 124 467 b 619 463 361 536 499 526 b 618 544 621 490 621 517 b 482 676 613 625 583 713 b 246 582 450 663 281 590 b 96 635 189 567 124 574 b 97 788 75 683 71 735 b 388 956 150 881 278 940 b 889 672 608 988 822 910 b 675 -35 946 465 967 13 m 449 301 b 426 183 307 332 254 197 b 449 301 540 174 563 283 "},"â":{"ha":944,"x_min":0,"x_max":0,"o":"m 675 -35 b 889 672 967 13 946 465 b 388 956 822 910 608 988 b 97 788 278 940 150 881 b 96 635 71 735 75 683 b 246 582 124 574 189 567 b 482 676 281 590 450 663 b 618 544 583 713 613 625 b 619 463 621 517 621 490 b 233 499 499 526 361 536 b 19 265 124 467 36 375 b 38 138 15 222 21 178 b 675 -35 125 -62 503 -65 m 449 301 b 426 183 563 283 540 174 b 449 301 254 197 307 332 "},"ã":{"ha":944,"x_min":0,"x_max":0,"o":"m 675 -35 b 38 138 503 -65 125 -62 b 19 265 21 178 15 222 b 233 499 36 375 124 467 b 619 463 361 536 499 526 b 618 544 621 490 621 517 b 482 676 613 625 583 713 b 246 582 450 663 281 590 b 96 635 189 567 124 574 b 97 788 75 683 71 735 b 388 956 150 881 278 940 b 889 672 608 988 822 910 b 675 -35 946 465 967 13 m 449 301 b 426 183 307 332 254 197 b 449 301 540 174 563 283 "},"ä":{"ha":944,"x_min":0,"x_max":0,"o":"m 675 -35 b 889 672 967 13 946 465 b 388 956 822 910 608 988 b 97 788 278 940 150 881 b 96 635 71 735 75 683 b 246 582 124 574 189 567 b 482 676 281 590 450 663 b 618 544 583 713 613 625 b 619 463 621 517 621 490 b 233 499 499 526 361 536 b 19 265 124 467 36 375 b 38 138 15 222 21 178 b 675 -35 125 -62 503 -65 m 449 301 b 426 183 563 283 540 174 b 449 301 254 197 307 332 "},"å":{"ha":944,"x_min":0,"x_max":0,"o":"m 675 -35 b 38 138 503 -65 125 -62 b 19 265 21 178 15 222 b 233 499 36 375 124 467 b 619 463 361 536 499 526 b 618 544 621 490 621 517 b 482 676 613 625 583 713 b 246 582 450 663 281 590 b 96 635 189 567 124 574 b 97 788 75 683 71 735 b 388 956 150 881 278 940 b 889 672 608 988 822 910 b 675 -35 946 465 967 13 m 449 301 b 426 183 307 332 254 197 b 449 301 540 174 563 283 "},"b":{"ha":917,"x_min":0,"x_max":0,"o":"m 368 4 b 182 -7 325 -37 233 -37 b 106 90 147 15 122 53 b 99 982 -3 324 13 740 b 289 1115 129 1074 189 1119 b 432 1063 344 1114 406 1099 b 407 769 497 979 432 854 b 364 575 390 704 375 640 b 858 618 481 718 744 836 b 807 146 931 482 908 279 b 393 54 711 18 542 -28 b 368 4 389 35 381 17 m 424 318 b 594 371 451 261 569 336 b 540 460 628 415 607 481 b 424 318 478 442 389 375 "},"c":{"ha":794,"x_min":0,"x_max":0,"o":"m 713 81 b 279 -19 599 -39 425 -75 b 65 631 32 75 -29 399 b 208 828 96 706 143 774 b 674 854 338 940 553 974 b 735 526 757 772 786 636 b 544 443 703 458 644 428 b 479 592 490 451 486 543 b 372 610 474 667 415 649 b 453 267 286 526 272 253 b 600 322 506 269 553 300 b 756 256 661 351 733 321 b 764 182 764 232 767 207 b 713 81 758 144 738 108 "},"ç":{"ha":794,"x_min":0,"x_max":0,"o":"m 713 81 b 764 182 738 108 758 144 b 756 256 767 207 764 232 b 600 322 733 321 661 351 b 453 267 553 300 506 269 b 372 610 272 253 286 526 b 479 592 415 649 474 667 b 544 443 486 543 490 451 b 735 526 644 428 703 458 b 674 854 786 636 757 772 b 208 828 553 974 338 940 b 65 631 143 774 96 706 b 279 -19 -29 399 32 75 b 713 81 425 -75 599 -39 "},"d":{"ha":978,"x_min":0,"x_max":0,"o":"m 889 -42 b 671 -28 825 -82 719 -85 b 614 135 632 17 624 76 b 200 22 539 -7 343 -68 b 190 751 -19 161 -42 626 b 558 672 314 818 453 775 b 554 822 551 721 550 772 b 700 1051 564 917 596 1017 b 861 1036 751 1068 814 1060 b 925 969 889 1022 917 999 b 915 857 935 932 925 894 b 894 588 892 771 893 681 b 931 211 897 461 911 335 b 942 75 938 165 944 121 b 889 -42 939 31 932 -14 m 379 282 b 476 482 492 224 594 413 b 379 282 347 560 300 319 "},"e":{"ha":863,"x_min":0,"x_max":0,"o":"m 617 7 b 136 69 460 -71 260 -43 b 113 682 -18 211 -4 493 b 601 914 210 842 406 933 b 646 438 899 885 906 556 b 319 346 543 392 432 367 b 588 357 322 158 507 285 b 782 353 640 406 732 424 b 808 224 810 317 819 267 b 617 7 783 133 703 49 m 469 686 b 324 522 417 669 338 600 b 507 597 383 532 453 557 b 469 686 558 640 550 713 "},"è":{"ha":863,"x_min":0,"x_max":0,"o":"m 617 7 b 808 224 703 49 783 133 b 782 353 819 267 810 317 b 588 357 732 424 640 406 b 319 346 507 285 322 158 b 646 438 432 367 543 392 b 601 914 906 556 899 885 b 113 682 406 933 210 842 b 136 69 -4 493 -18 211 b 617 7 260 -43 460 -71 m 469 686 b 507 597 550 713 558 640 b 324 522 453 557 383 532 b 469 686 338 600 417 669 "},"é":{"ha":863,"x_min":0,"x_max":0,"o":"m 617 7 b 136 69 460 -71 260 -43 b 113 682 -18 211 -4 493 b 601 914 210 842 406 933 b 646 438 899 885 906 556 b 319 346 543 392 432 367 b 588 357 322 158 507 285 b 782 353 640 406 732 424 b 808 224 810 317 819 267 b 617 7 783 133 703 49 m 469 686 b 324 522 417 669 338 600 b 507 597 383 532 453 557 b 469 686 558 640 550 713 "},"ê":{"ha":863,"x_min":0,"x_max":0,"o":"m 617 7 b 808 224 703 49 783 133 b 782 353 819 267 810 317 b 588 357 732 424 640 406 b 319 346 507 285 322 158 b 646 438 432 367 543 392 b 601 914 906 556 899 885 b 113 682 406 933 210 842 b 136 69 -4 493 -18 211 b 617 7 260 -43 460 -71 m 469 686 b 507 597 550 713 558 640 b 324 522 453 557 383 532 b 469 686 338 600 417 669 "},"ë":{"ha":863,"x_min":0,"x_max":0,"o":"m 617 7 b 136 69 460 -71 260 -43 b 113 682 -18 211 -4 493 b 601 914 210 842 406 933 b 646 438 899 885 906 556 b 319 346 543 392 432 367 b 588 357 322 158 507 285 b 782 353 640 406 732 424 b 808 224 810 317 819 267 b 617 7 783 133 703 49 m 469 686 b 324 522 417 669 338 600 b 507 597 383 532 453 557 b 469 686 558 640 550 713 "},"f":{"ha":753,"x_min":0,"x_max":0,"o":"m 465 -85 b 267 -107 419 -119 315 -135 b 147 174 182 -58 164 74 b 131 393 136 246 131 319 b 71 397 106 394 79 396 b 21 431 51 400 31 413 b 11 561 7 457 3 533 b 78 611 21 588 50 607 b 139 611 88 611 115 611 b 378 1022 156 756 213 978 b 722 836 507 1053 654 946 b 746 761 736 814 749 786 b 675 650 740 718 711 675 b 551 656 639 624 588 626 b 486 693 538 665 504 697 b 447 619 461 685 453 642 b 518 619 471 622 494 622 b 611 579 549 618 596 613 b 606 446 631 539 632 482 b 568 417 597 432 583 422 b 444 401 529 401 486 403 b 500 -40 431 289 544 79 b 465 -85 494 -58 481 -74 "},"g":{"ha":978,"x_min":0,"x_max":0,"o":"m 714 -306 b 254 -297 599 -378 360 -412 b 285 -76 193 -232 211 -126 b 431 -58 325 -50 382 -51 b 701 250 611 -81 675 82 b 106 114 607 96 335 -79 b 21 388 35 174 13 288 b 140 715 29 503 76 618 b 544 932 215 828 389 986 b 736 742 624 908 708 833 b 897 631 806 739 869 701 b 944 415 926 563 936 489 b 714 -306 969 203 924 -171 m 379 339 b 601 579 493 294 583 500 b 351 431 563 726 385 533 b 379 339 342 396 346 351 "},"h":{"ha":919,"x_min":0,"x_max":0,"o":"m 372 35 b 154 -32 343 -25 213 -50 b 63 161 86 -8 74 93 b 51 704 36 340 40 524 b 104 1003 58 804 71 907 b 169 1068 119 1038 131 1056 b 346 1054 219 1085 296 1075 b 417 910 407 1029 424 976 b 394 721 411 846 404 783 b 879 478 635 974 853 753 b 846 19 888 379 907 99 b 739 -32 822 -11 778 -29 b 560 158 603 -44 535 17 b 589 356 574 222 589 289 b 540 478 589 396 579 465 b 383 192 424 515 383 263 b 372 35 383 139 394 82 "},"i":{"ha":450,"x_min":0,"x_max":0,"o":"m 364 799 b 147 753 317 740 213 715 b 100 1006 67 801 58 925 b 421 992 171 1140 394 1175 b 364 799 431 925 407 851 m 386 113 b 238 -25 392 33 318 -25 b 133 10 196 -25 163 -12 b 47 475 1 111 28 318 b 206 650 61 563 92 658 b 372 524 276 644 353 610 b 367 407 381 486 374 446 b 356 215 356 344 342 278 b 369 178 358 203 365 190 b 386 113 378 157 385 135 "},"ì":{"ha":450,"x_min":0,"x_max":0,"o":"m 364 799 b 421 992 407 851 431 925 b 100 1006 394 1175 171 1140 b 147 753 58 925 67 801 b 364 799 213 715 317 740 m 386 113 b 369 178 385 135 378 157 b 356 215 365 190 358 203 b 367 407 342 278 356 344 b 372 524 374 446 381 486 b 206 650 353 610 276 644 b 47 475 92 658 61 563 b 133 10 28 318 1 111 b 238 -25 163 -12 196 -25 b 386 113 318 -25 392 33 "},"í":{"ha":450,"x_min":0,"x_max":0,"o":"m 364 799 b 147 753 317 740 213 715 b 100 1006 67 801 58 925 b 421 992 171 1140 394 1175 b 364 799 431 925 407 851 m 386 113 b 238 -25 392 33 318 -25 b 133 10 196 -25 163 -12 b 47 475 1 111 28 318 b 206 650 61 563 92 658 b 372 524 276 644 353 610 b 367 407 381 486 374 446 b 356 215 356 344 342 278 b 369 178 358 203 365 190 b 386 113 378 157 385 135 "},"î":{"ha":450,"x_min":0,"x_max":0,"o":"m 364 799 b 421 992 407 851 431 925 b 100 1006 394 1175 171 1140 b 147 753 58 925 67 801 b 364 799 213 715 317 740 m 386 113 b 369 178 385 135 378 157 b 356 215 365 190 358 203 b 367 407 342 278 356 344 b 372 524 374 446 381 486 b 206 650 353 610 276 644 b 47 475 92 658 61 563 b 133 10 28 318 1 111 b 238 -25 163 -12 196 -25 b 386 113 318 -25 392 33 "},"ï":{"ha":450,"x_min":0,"x_max":0,"o":"m 364 799 b 147 753 317 740 213 715 b 100 1006 67 801 58 925 b 421 992 171 1140 394 1175 b 364 799 431 925 407 851 m 386 113 b 238 -25 392 33 318 -25 b 133 10 196 -25 163 -12 b 47 475 1 111 28 318 b 206 650 61 563 92 658 b 372 524 276 644 353 610 b 367 407 381 486 374 446 b 356 215 356 344 342 278 b 369 178 358 203 365 190 b 386 113 378 157 385 135 "},"j":{"ha":788,"x_min":0,"x_max":0,"o":"m 740 956 b 385 967 688 794 408 767 b 740 956 346 1261 843 1279 m 735 531 b 628 -94 743 340 746 86 b 310 -260 560 -199 451 -272 b 7 -71 197 -247 56 -187 b 22 63 -11 -29 -3 25 b 133 92 47 100 94 113 b 378 224 293 17 378 -19 b 372 621 378 356 346 490 b 400 693 378 646 385 672 b 629 761 447 754 557 776 b 735 531 728 733 732 617 "},"k":{"ha":810,"x_min":0,"x_max":0,"o":"m 438 89 b 283 -33 435 8 361 -37 b 188 0 251 -31 218 -21 b 60 296 106 61 79 192 b 36 636 39 408 32 522 b 132 996 39 738 57 914 b 381 994 190 1063 318 1053 b 417 914 403 975 419 943 b 386 658 414 883 396 733 b 476 740 413 689 444 715 b 689 821 529 783 615 836 b 746 789 710 817 731 804 b 789 711 765 768 782 740 b 747 585 804 671 789 610 b 535 457 686 546 606 514 b 731 360 596 432 706 386 b 756 300 746 344 754 321 b 647 171 758 242 706 182 b 544 181 614 165 576 168 b 413 265 494 200 453 231 b 438 89 413 210 438 154 "},"l":{"ha":456,"x_min":0,"x_max":0,"o":"m 378 38 b 182 6 360 -51 246 -60 b 38 561 57 135 43 379 b 65 885 35 679 43 794 b 235 1044 90 983 115 1044 b 428 864 343 1046 446 972 b 365 486 407 739 376 619 b 382 89 354 361 378 197 b 378 38 382 72 382 54 "},"m":{"ha":1336,"x_min":0,"x_max":0,"o":"m 358 50 b 108 -6 322 -54 190 -81 b 65 65 88 13 74 39 b 71 657 8 225 28 478 b 124 806 79 710 92 764 b 282 829 160 854 232 876 b 336 747 306 807 322 778 b 742 733 500 889 654 861 b 1231 692 864 921 1122 900 b 1308 321 1288 579 1310 447 b 1197 -21 1308 219 1300 39 b 1083 -35 1164 -40 1121 -40 b 974 35 1042 -31 989 -11 b 964 129 961 65 964 99 b 971 221 964 160 968 190 b 979 419 975 275 985 351 b 854 413 965 579 861 574 b 858 229 853 353 861 290 b 814 53 856 168 847 103 b 728 -12 794 22 763 -3 b 613 -4 690 -22 649 -17 b 560 29 593 4 574 14 b 524 124 536 54 525 90 b 526 376 517 206 538 286 b 338 335 496 600 344 532 b 356 165 335 278 346 221 b 358 50 363 128 371 86 "},"n":{"ha":886,"x_min":0,"x_max":0,"o":"m 294 -28 b 178 -43 261 -49 215 -53 b 33 301 46 -14 35 163 b 68 675 32 417 36 556 b 163 840 85 733 106 804 b 269 839 197 863 238 861 b 338 747 293 824 321 785 b 835 508 550 901 776 754 b 826 76 864 378 883 208 b 740 -8 810 39 778 6 b 554 35 685 -28 590 -10 b 531 271 504 97 524 196 b 478 536 536 340 529 476 b 338 324 421 603 339 510 b 358 154 338 267 347 210 b 358 51 364 121 368 85 b 294 -28 349 19 324 -11 "},"ñ":{"ha":886,"x_min":0,"x_max":0,"o":"m 294 -28 b 358 51 324 -11 349 19 b 358 154 368 85 364 121 b 338 324 347 210 338 267 b 478 536 339 510 421 603 b 531 271 529 476 536 340 b 554 35 524 196 504 97 b 740 -8 590 -10 685 -28 b 826 76 778 6 810 39 b 835 508 883 208 864 378 b 338 747 776 754 550 901 b 269 839 321 785 293 824 b 163 840 238 861 197 863 b 68 675 106 804 85 733 b 33 301 36 556 32 417 b 178 -43 35 163 46 -14 b 294 -28 215 -53 261 -49 "},"o":{"ha":892,"x_min":0,"x_max":0,"o":"m 865 571 b 349 -6 890 275 690 -62 b 21 449 140 32 13 226 b 258 874 28 608 118 781 b 865 571 515 1042 842 875 m 365 540 b 572 417 244 299 442 163 b 365 540 672 610 460 732 "},"ò":{"ha":892,"x_min":0,"x_max":0,"o":"m 865 571 b 258 874 842 875 515 1042 b 21 449 118 781 28 608 b 349 -6 13 226 140 32 b 865 571 690 -62 890 275 m 365 540 b 572 417 460 732 672 610 b 365 540 442 163 244 299 "},"ó":{"ha":892,"x_min":0,"x_max":0,"o":"m 865 571 b 349 -6 890 275 690 -62 b 21 449 140 32 13 226 b 258 874 28 608 118 781 b 865 571 515 1042 842 875 m 365 540 b 572 417 244 299 442 163 b 365 540 672 610 460 732 "},"ô":{"ha":892,"x_min":0,"x_max":0,"o":"m 865 571 b 258 874 842 875 515 1042 b 21 449 118 781 28 608 b 349 -6 13 226 140 32 b 865 571 690 -62 890 275 m 365 540 b 572 417 460 732 672 610 b 365 540 442 163 244 299 "},"õ":{"ha":892,"x_min":0,"x_max":0,"o":"m 865 571 b 349 -6 890 275 690 -62 b 21 449 140 32 13 226 b 258 874 28 608 118 781 b 865 571 515 1042 842 875 m 365 540 b 572 417 244 299 442 163 b 365 540 672 610 460 732 "},"ö":{"ha":892,"x_min":0,"x_max":0,"o":"m 865 571 b 258 874 842 875 515 1042 b 21 449 118 781 28 608 b 349 -6 13 226 140 32 b 865 571 690 -62 890 275 m 365 540 b 572 417 460 732 672 610 b 365 540 442 163 244 299 "},"ø":{"ha":892,"x_min":0,"x_max":0,"o":"m 865 571 b 349 -6 890 275 690 -62 b 21 449 140 32 13 226 b 258 874 28 608 118 781 b 865 571 515 1042 842 875 m 365 540 b 572 417 244 299 442 163 b 365 540 672 610 460 732 "},"p":{"ha":907,"x_min":0,"x_max":0,"o":"m 281 -151 b 214 -149 258 -156 235 -156 b 54 186 88 -101 68 65 b 131 978 35 361 -6 825 b 250 1011 158 1008 208 1015 b 356 964 288 1007 329 999 b 378 876 374 939 382 907 b 371 846 375 867 374 856 b 372 846 372 846 372 846 b 838 846 482 976 732 1011 b 749 282 940 683 875 408 b 388 193 656 190 522 139 b 379 197 386 194 383 196 b 414 19 390 140 406 82 b 353 -128 421 -35 408 -100 b 281 -151 331 -140 306 -147 m 417 474 b 456 457 426 463 442 456 b 567 553 490 458 543 504 b 471 638 601 624 543 689 b 417 474 429 607 376 528 "},"q":{"ha":890,"x_min":0,"x_max":0,"o":"m 868 -183 b 668 -262 831 -243 733 -262 b 539 -214 622 -264 572 -244 b 485 -85 504 -182 489 -131 b 485 107 478 -21 479 43 b 25 401 260 -1 51 165 b 58 665 15 489 26 581 b 493 872 122 843 304 974 b 611 860 531 854 571 835 b 804 779 682 896 769 863 b 838 611 828 726 833 668 b 824 415 840 546 829 481 b 831 147 814 326 819 236 b 860 -11 832 128 847 42 b 868 -183 871 -64 900 -129 m 351 504 b 529 460 310 329 492 257 b 351 504 560 664 401 717 "},"r":{"ha":926,"x_min":0,"x_max":0,"o":"m 393 126 b 246 -31 378 47 342 -31 b 144 -7 211 -29 175 -25 b 43 293 61 35 47 210 b 72 779 33 454 42 619 b 129 961 83 839 92 907 b 286 1001 161 1004 238 1024 b 358 914 322 985 350 957 b 357 786 363 872 360 829 b 775 863 467 888 626 942 b 917 640 856 817 921 740 b 868 517 914 596 896 551 b 618 538 788 415 688 442 b 418 321 468 671 435 435 b 393 126 408 257 406 192 "},"s":{"ha":757,"x_min":0,"x_max":0,"o":"m 561 399 b 517 -10 743 317 729 60 b 150 21 408 -47 253 -50 b 74 118 115 44 82 78 b 160 219 64 172 106 219 b 279 196 200 218 239 204 b 342 249 389 174 358 232 b 185 336 296 294 239 313 b 100 794 -11 419 -7 644 b 481 943 185 914 338 964 b 742 736 590 928 726 863 b 694 503 749 668 739 567 b 569 457 660 457 626 444 b 435 529 510 469 442 485 b 436 575 432 544 432 561 b 463 647 442 600 456 622 b 458 694 467 663 467 681 b 361 703 440 729 393 726 b 367 485 290 651 290 547 b 561 399 404 457 490 429 "},"t":{"ha":647,"x_min":0,"x_max":0,"o":"m 543 32 b 278 -53 499 -46 363 -75 b 167 29 233 -42 189 -11 b 188 601 89 160 160 454 b 26 653 136 599 63 610 b 6 714 13 669 6 692 b 83 819 6 764 33 804 b 201 825 121 831 160 825 b 253 1019 201 869 206 990 b 407 1014 285 1039 372 1028 b 463 888 463 990 478 947 b 454 822 460 875 451 833 b 500 822 461 819 493 822 b 622 781 542 822 593 819 b 604 642 651 740 640 675 b 474 608 564 606 528 606 b 481 494 474 572 478 536 b 550 128 492 364 515 253 b 543 32 558 97 558 60 "},"u":{"ha":904,"x_min":0,"x_max":0,"o":"m 806 8 b 625 -15 768 -22 669 -31 b 549 60 592 -4 565 26 b 174 76 438 -22 279 -25 b 40 674 32 213 3 497 b 140 814 53 731 82 790 b 328 813 183 833 271 835 b 389 714 365 799 390 769 b 357 475 386 624 354 569 b 550 483 357 228 539 249 b 531 654 551 540 540 597 b 749 861 503 797 592 890 b 869 747 811 850 876 810 b 858 653 865 715 861 685 b 847 118 842 481 842 292 b 806 8 847 79 840 35 "},"ù":{"ha":904,"x_min":0,"x_max":0,"o":"m 806 8 b 847 118 840 35 847 79 b 858 653 842 292 842 481 b 869 747 861 685 865 715 b 749 861 876 810 811 850 b 531 654 592 890 503 797 b 550 483 540 597 551 540 b 357 475 539 249 357 228 b 389 714 354 569 386 624 b 328 813 390 769 365 799 b 140 814 271 835 183 833 b 40 674 82 790 53 731 b 174 76 3 497 32 213 b 549 60 279 -25 438 -22 b 625 -15 565 26 592 -4 b 806 8 669 -31 768 -22 "},"ú":{"ha":904,"x_min":0,"x_max":0,"o":"m 806 8 b 625 -15 768 -22 669 -31 b 549 60 592 -4 565 26 b 174 76 438 -22 279 -25 b 40 674 32 213 3 497 b 140 814 53 731 82 790 b 328 813 183 833 271 835 b 389 714 365 799 390 769 b 357 475 386 624 354 569 b 550 483 357 228 539 249 b 531 654 551 540 540 597 b 749 861 503 797 592 890 b 869 747 811 850 876 810 b 858 653 865 715 861 685 b 847 118 842 481 842 292 b 806 8 847 79 840 35 "},"û":{"ha":904,"x_min":0,"x_max":0,"o":"m 806 8 b 847 118 840 35 847 79 b 858 653 842 292 842 481 b 869 747 861 685 865 715 b 749 861 876 810 811 850 b 531 654 592 890 503 797 b 550 483 540 597 551 540 b 357 475 539 249 357 228 b 389 714 354 569 386 624 b 328 813 390 769 365 799 b 140 814 271 835 183 833 b 40 674 82 790 53 731 b 174 76 3 497 32 213 b 549 60 279 -25 438 -22 b 625 -15 565 26 592 -4 b 806 8 669 -31 768 -22 "},"ü":{"ha":904,"x_min":0,"x_max":0,"o":"m 806 8 b 625 -15 768 -22 669 -31 b 549 60 592 -4 565 26 b 174 76 438 -22 279 -25 b 40 674 32 213 3 497 b 140 814 53 731 82 790 b 328 813 183 833 271 835 b 389 714 365 799 390 769 b 357 475 386 624 354 569 b 550 483 357 228 539 249 b 531 654 551 540 540 597 b 749 861 503 797 592 890 b 869 747 811 850 876 810 b 858 653 865 715 861 685 b 847 118 842 481 842 292 b 806 8 847 79 840 35 "},"v":{"ha":814,"x_min":0,"x_max":0,"o":"m 425 -35 b 192 167 313 -39 236 72 b 29 689 114 328 75 517 b 17 799 21 725 8 763 b 72 883 24 832 46 863 b 232 918 114 918 181 936 b 372 690 321 889 357 778 b 396 529 382 638 388 583 b 503 518 417 383 426 328 b 579 778 532 588 543 711 b 753 803 613 844 685 832 b 794 654 817 775 804 706 b 731 433 779 579 753 507 b 657 213 708 358 685 285 b 425 -35 621 114 553 -31 "},"w":{"ha":1268,"x_min":0,"x_max":0,"o":"m 635 304 b 479 86 599 244 544 157 b 69 86 364 -39 167 -87 b 88 767 -19 246 42 585 b 182 961 106 839 135 906 b 465 871 278 1072 464 1018 b 383 558 465 821 399 607 b 497 563 308 290 419 365 b 582 742 521 624 538 692 b 742 726 626 792 708 800 b 883 456 764 668 838 504 b 925 439 893 444 911 431 b 931 682 972 465 933 638 b 949 792 929 719 932 758 b 1165 818 990 871 1100 881 b 1224 689 1199 785 1215 735 b 1229 346 1243 575 1250 457 b 1078 82 1211 250 1169 136 b 707 169 957 6 797 58 b 635 304 675 208 646 256 "},"x":{"ha":804,"x_min":0,"x_max":0,"o":"m 699 60 b 632 40 679 47 656 40 b 354 224 544 44 411 158 b 226 65 317 171 283 103 b 172 49 211 54 192 50 b 24 158 100 46 26 88 b 53 275 22 199 36 239 b 160 474 82 343 117 408 b 44 771 100 549 36 663 b 115 885 49 815 76 864 b 247 906 156 906 204 915 b 390 747 321 893 357 808 b 651 890 464 824 572 908 b 738 686 728 874 776 758 b 568 499 697 611 626 561 b 781 244 632 424 739 343 b 783 185 788 225 788 204 b 699 60 772 136 742 86 "},"y":{"ha":908,"x_min":0,"x_max":0,"o":"m 861 293 b 336 -206 817 33 629 -215 b 117 68 193 -200 50 -90 b 333 119 151 151 278 150 b 553 289 461 50 514 129 b 256 183 471 222 361 179 b 149 210 219 185 183 196 b 79 265 121 221 96 242 b 28 414 49 308 32 363 b 129 915 13 568 53 781 b 272 986 160 971 206 993 b 361 956 303 983 335 974 b 393 747 424 908 419 826 b 335 564 372 686 346 628 b 504 594 313 407 468 536 b 519 719 525 631 521 678 b 600 936 517 793 515 897 b 825 910 672 969 786 979 b 857 810 840 882 851 847 b 861 293 878 676 885 431 "},"ý":{"ha":908,"x_min":0,"x_max":0,"o":"m 861 293 b 857 810 885 431 878 676 b 825 910 851 847 840 882 b 600 936 786 979 672 969 b 519 719 515 897 517 793 b 504 594 521 678 525 631 b 335 564 468 536 313 407 b 393 747 346 628 372 686 b 361 956 419 826 424 908 b 272 986 335 974 303 983 b 129 915 206 993 160 971 b 28 414 53 781 13 568 b 79 265 32 363 49 308 b 149 210 96 242 121 221 b 256 183 183 196 219 185 b 553 289 361 179 471 222 b 333 119 514 129 461 50 b 117 68 278 150 151 151 b 336 -206 50 -90 193 -200 b 861 293 629 -215 817 33 "},"ÿ":{"ha":908,"x_min":0,"x_max":0,"o":"m 861 293 b 336 -206 817 33 629 -215 b 117 68 193 -200 50 -90 b 333 119 151 151 278 150 b 553 289 461 50 514 129 b 256 183 471 222 361 179 b 149 210 219 185 183 196 b 79 265 121 221 96 242 b 28 414 49 308 32 363 b 129 915 13 568 53 781 b 272 986 160 971 206 993 b 361 956 303 983 335 974 b 393 747 424 908 419 826 b 335 564 372 686 346 628 b 504 594 313 407 468 536 b 519 719 525 631 521 678 b 600 936 517 793 515 897 b 825 910 672 969 786 979 b 857 810 840 882 851 847 b 861 293 878 676 885 431 "},"z":{"ha":867,"x_min":0,"x_max":0,"o":"m 610 6 b 279 42 499 4 386 13 b 111 367 129 85 24 197 b 394 610 165 471 279 536 b 197 604 329 604 263 599 b 54 653 147 608 92 619 b 38 865 6 699 8 807 b 104 929 51 893 75 918 b 265 939 154 950 213 947 b 568 903 363 919 463 911 b 801 800 642 897 763 883 b 811 692 817 768 818 728 b 646 497 793 604 711 554 b 521 376 603 461 565 422 b 713 361 585 378 649 372 b 836 267 767 349 810 324 b 722 25 869 168 817 69 b 610 6 688 8 647 7 "},"{":{"ha":714,"x_min":0,"x_max":0,"o":"m 600 -162 b 318 -126 507 -182 404 -164 b 143 239 150 -51 157 76 b 33 431 139 318 101 379 b 26 478 18 442 15 463 b 76 518 32 486 69 513 b 126 800 164 590 138 697 b 625 1185 103 1022 344 1231 b 658 1151 642 1182 654 1169 b 681 996 671 1100 679 1047 b 636 883 683 953 678 910 b 446 789 581 858 453 885 b 361 449 433 674 478 532 b 458 200 467 371 435 313 b 676 106 481 78 601 143 b 710 33 704 92 710 68 b 668 -132 710 -19 708 -92 b 600 -162 650 -150 624 -157 "},"}":{"ha":714,"x_min":0,"x_max":0,"o":"m 528 -21 b 100 -160 440 -143 249 -196 b 4 13 18 -137 11 -67 b 14 88 4 38 3 65 b 175 124 38 125 133 119 b 253 189 213 124 243 147 b 353 449 283 297 242 365 b 267 721 281 514 257 607 b 221 856 271 768 278 833 b 119 872 189 868 153 867 b 36 938 82 878 47 897 b 33 1006 31 960 31 983 b 56 1153 39 1056 43 1104 b 99 1188 60 1171 81 1183 b 565 944 281 1219 501 1144 b 578 685 592 858 586 779 b 647 511 568 615 586 557 b 685 481 651 507 681 486 b 682 431 699 467 697 443 b 569 224 619 381 574 322 b 528 -21 567 144 576 53 "},"~":{"ha":907,"x_min":0,"x_max":0,"o":"m 279 156 b 200 140 257 140 226 135 b 132 168 176 144 153 156 b 64 218 107 182 83 199 b 76 425 6 276 31 360 b 419 504 176 558 275 649 b 564 483 472 451 489 431 b 718 569 604 513 654 578 b 786 543 743 567 765 557 b 857 482 811 526 838 507 b 854 335 886 442 882 383 b 461 199 781 203 603 103 b 379 246 447 208 396 244 b 338 219 363 247 347 232 b 279 156 319 197 303 171 "}," ":{"ha":347,"x_min":0,"x_max":0,"o":""},"¢":{"ha":818,"x_min":0,"x_max":0,"o":"m 465 -28 b 338 -12 438 -29 358 -29 b 322 43 322 0 321 25 b 329 100 324 53 326 76 b 35 499 147 138 35 313 b 343 943 35 690 149 878 b 351 946 346 944 349 946 b 346 1018 349 975 346 1007 b 403 1100 343 1060 360 1089 b 503 1106 435 1107 469 1108 b 554 1050 533 1106 554 1083 b 550 964 556 1038 553 997 b 646 929 585 958 617 946 b 765 593 751 864 790 718 b 671 526 757 550 735 528 b 567 526 646 525 599 514 b 503 594 536 538 513 563 b 469 713 494 621 513 711 b 396 690 440 714 415 704 b 321 510 343 653 311 578 b 565 401 339 378 447 350 b 614 424 582 410 597 418 b 708 424 644 436 679 435 b 769 278 764 401 789 333 b 640 147 750 219 694 176 b 546 110 610 132 578 119 b 538 4 544 83 544 19 b 517 -19 533 -6 526 -14 b 465 -28 501 -26 482 -28 "},"£":{"ha":961,"x_min":0,"x_max":0,"o":"m 149 -28 b 53 10 88 -29 65 -10 b 40 49 46 21 42 35 b 39 156 38 65 36 139 b 57 221 42 178 44 201 b 108 254 67 238 88 251 b 200 249 139 260 169 253 b 199 326 203 261 200 314 b 119 315 188 324 131 315 b 67 342 99 315 79 321 b 61 501 53 371 56 469 b 90 546 64 519 75 538 b 161 546 111 558 139 551 b 581 1067 124 813 274 1067 b 883 974 689 1068 806 1042 b 932 881 910 951 947 917 b 851 722 911 829 881 778 b 765 699 826 675 792 678 b 479 567 671 810 454 801 b 564 576 507 571 535 575 b 628 571 585 576 608 579 b 656 535 642 565 654 550 b 664 438 657 524 664 450 b 647 360 667 411 663 381 b 600 335 636 346 618 338 b 499 338 586 333 514 336 b 465 342 494 338 471 340 b 474 288 467 324 469 306 b 725 314 557 294 642 314 b 864 253 771 314 853 314 b 831 13 872 207 864 43 b 742 -10 807 -8 772 -11 "},"¤":{"ha":894,"x_min":0,"x_max":0,"o":"m 701 50 b 631 67 678 38 649 44 b 588 156 621 79 603 121 b 519 132 565 146 543 138 b 296 147 447 114 367 122 b 219 47 282 111 253 51 b 76 125 181 43 94 89 b 76 172 69 139 71 158 b 128 261 82 188 113 242 b 129 742 18 392 21 601 b 140 753 133 746 136 750 b 89 821 117 781 94 808 b 85 874 81 836 78 857 b 238 981 101 915 194 968 b 289 964 257 985 275 979 b 304 938 296 957 300 947 b 324 878 311 918 317 897 b 642 867 426 908 538 922 b 699 933 663 897 683 924 b 740 940 710 940 726 943 b 806 892 767 932 785 910 b 842 861 811 888 838 867 b 807 746 869 829 835 778 b 781 718 799 736 790 726 b 758 304 842 589 824 438 b 779 275 768 290 776 279 b 835 204 788 264 829 215 b 838 182 838 197 839 190 b 815 146 836 168 826 156 b 701 50 804 135 711 57 m 406 392 b 560 544 494 376 568 454 b 453 640 556 601 521 653 b 343 428 367 624 296 513 b 406 392 356 408 382 396 "},"¥":{"ha":956,"x_min":0,"x_max":0,"o":"m 479 -37 b 267 22 418 -37 306 -46 b 253 103 254 46 251 75 b 254 107 253 104 253 106 b 188 107 225 106 199 106 b 147 133 171 107 156 119 b 139 224 138 150 133 204 b 178 263 143 242 158 260 b 275 263 190 265 238 264 b 281 286 276 271 279 278 b 172 307 238 283 190 285 b 161 357 163 321 161 340 b 164 413 160 376 157 396 b 190 439 169 424 179 432 b 263 453 207 447 225 451 b 36 828 169 558 74 682 b 24 908 29 854 24 882 b 38 947 24 922 29 936 b 83 983 49 963 65 974 b 244 1047 129 1011 189 1039 b 313 1040 268 1051 293 1053 b 396 853 369 1007 381 913 b 457 682 411 794 433 738 b 628 985 496 793 550 900 b 860 1038 688 1049 776 1103 b 944 940 893 1011 922 978 b 901 739 986 868 964 801 b 610 461 804 649 697 564 b 603 454 608 460 606 457 b 603 451 603 453 603 451 b 722 436 644 454 681 453 b 747 331 753 421 753 364 b 726 281 746 313 739 293 b 657 267 710 264 681 265 b 599 267 646 267 622 267 b 600 247 599 261 599 254 b 668 246 628 247 658 246 b 729 232 689 246 711 243 b 749 193 740 224 747 207 b 728 106 751 169 747 119 b 681 92 715 96 697 93 b 610 93 671 92 639 92 b 610 49 611 74 611 57 b 479 -37 603 -11 544 -32 "},"­":{"ha":0,"x_min":0,"x_max":0,"o":""},"±":{"ha":968,"x_min":0,"x_max":0,"o":"m 583 279 b 367 311 526 268 406 268 b 350 365 354 325 350 346 b 354 478 350 383 350 443 b 136 479 285 472 208 467 b 81 503 117 483 96 489 b 36 703 39 542 19 649 b 208 796 60 775 131 796 b 349 786 256 796 300 783 b 339 876 342 815 339 846 b 382 993 336 913 339 972 b 469 1014 408 1007 440 1013 b 647 996 507 1018 617 1017 b 674 826 696 964 678 878 b 674 781 674 818 674 799 b 836 778 718 783 811 782 b 933 671 893 768 926 732 b 932 581 936 640 936 610 b 867 486 925 543 910 497 b 672 478 807 468 733 472 b 679 372 679 443 685 407 b 583 279 669 321 633 292 m 674 -79 b 207 -85 519 -65 367 -93 b 100 -15 160 -79 121 -65 b 217 194 69 63 115 183 b 649 201 361 213 503 207 b 863 143 703 197 831 210 b 847 -31 889 92 881 17 b 674 -79 808 -85 736 -86 "},"×":{"ha":890,"x_min":0,"x_max":0,"o":"m 474 253 b 310 113 440 194 392 108 b 138 222 244 117 178 167 b 113 283 124 239 113 261 b 128 335 111 301 118 319 b 225 451 140 354 192 418 b 67 576 185 478 88 554 b 29 644 50 596 31 619 b 153 864 25 713 96 828 b 244 888 179 882 213 892 b 447 739 328 878 389 796 b 618 911 474 789 549 915 b 729 864 658 910 696 886 b 824 775 747 853 811 793 b 836 721 835 760 840 739 b 783 631 829 686 806 657 b 699 535 756 599 726 568 b 757 488 719 521 738 501 b 831 285 824 436 883 372 b 653 135 797 231 717 131 b 504 228 597 139 547 193 b 474 253 497 232 485 242 "},"÷":{"ha":732,"x_min":0,"x_max":0,"o":"m 503 763 b 386 640 508 696 453 642 b 263 769 311 639 242 697 b 503 763 300 883 492 897 m 517 318 b 144 310 394 331 274 313 b 64 332 117 311 86 315 b 43 518 17 371 15 463 b 114 586 57 547 83 575 b 494 597 207 618 385 606 b 639 583 514 596 619 589 b 693 536 664 578 683 561 b 672 356 717 481 710 403 b 615 318 658 338 638 325 b 517 318 583 310 549 313 m 453 92 b 306 78 411 58 353 53 b 267 228 250 107 232 175 b 492 188 319 300 475 297 b 453 92 496 151 482 115 "},"‘":{"ha":311,"x_min":0,"x_max":0,"o":"m 188 668 b 68 676 154 665 100 657 b 50 701 58 682 51 692 b 50 956 43 796 50 864 b 60 1021 50 978 49 1001 b 104 1044 68 1035 88 1042 b 261 1015 142 1053 233 1051 b 274 822 282 983 276 861 b 188 668 271 764 264 675 "},"’":{"ha":311,"x_min":0,"x_max":0,"o":"m 188 668 b 68 676 154 665 100 657 b 50 701 58 682 51 692 b 50 956 43 796 50 864 b 60 1021 50 978 49 1001 b 104 1044 68 1035 88 1042 b 261 1015 142 1053 233 1051 b 274 822 282 983 276 861 b 188 668 271 764 264 675 "},"“":{"ha":589,"x_min":0,"x_max":0,"o":"m 188 668 b 68 676 154 665 100 657 b 50 701 58 682 51 692 b 50 956 43 796 50 864 b 60 1021 50 978 49 1001 b 104 1044 68 1035 88 1042 b 261 1015 142 1053 233 1051 b 274 822 282 983 276 861 b 188 668 271 764 264 675 m 464 668 b 344 676 431 665 376 657 b 326 701 335 682 328 692 b 326 956 319 796 326 864 b 336 1021 326 978 325 1001 b 381 1044 344 1035 364 1042 b 538 1015 418 1053 510 1051 b 550 822 558 983 553 861 b 464 668 547 764 540 675 "},"”":{"ha":589,"x_min":0,"x_max":0,"o":"m 188 668 b 68 676 154 665 100 657 b 50 701 58 682 51 692 b 50 956 43 796 50 864 b 60 1021 50 978 49 1001 b 104 1044 68 1035 88 1042 b 261 1015 142 1053 233 1051 b 274 822 282 983 276 861 b 188 668 271 764 264 675 m 464 668 b 344 676 431 665 376 657 b 326 701 335 682 328 692 b 326 956 319 796 326 864 b 336 1021 326 978 325 1001 b 381 1044 344 1035 364 1042 b 538 1015 418 1053 510 1051 b 550 822 558 983 553 861 b 464 668 547 764 540 675 "},"€":{"ha":817,"x_min":0,"x_max":0,"o":"m 663 -39 b 131 296 422 -132 164 44 b 124 313 131 300 126 311 b 68 317 115 317 78 315 b 40 328 58 318 47 321 b 28 360 32 336 28 347 b 46 449 25 385 25 435 b 81 457 56 456 69 458 b 144 472 107 454 144 446 b 144 475 144 474 144 474 b 63 479 117 475 89 471 b 32 507 47 483 38 493 b 51 610 24 533 33 589 b 156 619 68 632 128 622 b 336 960 156 731 231 878 b 765 994 456 1050 643 1043 b 788 878 807 978 797 919 b 713 742 778 836 754 751 b 625 750 683 735 654 744 b 404 626 533 768 401 746 b 517 613 433 628 500 636 b 532 551 528 594 531 572 b 521 496 533 532 533 510 b 468 482 508 482 486 481 b 371 483 449 483 386 497 b 374 465 367 481 371 465 b 493 463 404 465 464 471 b 521 429 514 457 518 449 b 461 318 531 369 539 321 b 378 315 449 317 390 319 b 378 304 374 314 378 308 b 576 196 396 215 485 164 b 679 214 604 204 649 233 b 736 89 707 199 729 119 b 663 -39 744 31 721 -17 "},"™":{"ha":1024,"x_min":0,"x_max":0,"o":"m 322 588 b 186 582 299 578 213 578 b 140 625 163 586 146 599 b 163 844 131 664 158 797 b 125 838 150 840 138 839 b 39 876 94 833 47 836 b 29 953 32 901 31 928 b 53 1031 29 985 28 1014 b 235 1047 86 1056 190 1044 b 396 1050 258 1049 372 1053 b 447 883 468 1038 478 940 b 415 860 442 871 429 863 b 346 860 393 856 368 867 b 346 613 346 801 368 663 b 322 588 342 601 332 593 m 901 583 b 824 589 875 582 849 582 b 785 639 801 594 788 614 b 789 746 783 656 785 701 b 783 738 788 743 785 740 b 743 703 772 724 760 708 b 678 743 719 696 696 718 b 678 631 678 707 681 643 b 564 585 668 578 607 582 b 494 638 533 588 500 600 b 506 878 481 717 492 799 b 515 982 507 890 511 949 b 525 1019 515 994 518 1008 b 642 1042 544 1049 608 1049 b 681 1018 657 1039 672 1031 b 732 924 703 989 717 957 b 774 1006 744 951 754 982 b 853 1036 792 1026 825 1035 b 931 1021 879 1039 910 1036 b 967 882 956 1000 963 914 b 986 707 974 824 986 765 b 975 632 986 682 985 656 b 901 583 964 603 935 586 "},"−":{"ha":740,"x_min":0,"x_max":0,"o":"m 521 318 b 149 310 399 331 278 313 b 68 332 121 311 90 315 b 47 518 21 371 19 463 b 118 586 61 547 88 575 b 499 597 211 618 389 606 b 643 583 518 596 624 589 b 697 536 668 578 688 561 b 676 356 721 481 714 403 b 521 318 640 308 576 308 "},"|":{"ha":465,"x_min":0,"x_max":0,"o":"m 274 -187 b 76 -144 221 -190 117 -200 b 63 118 29 -74 57 33 b 88 1006 86 411 40 713 b 111 1061 92 1029 99 1050 b 379 1079 160 1101 326 1111 b 400 853 435 1046 406 903 b 408 26 375 560 403 310 b 392 -157 408 -19 426 -118 b 350 -179 381 -168 365 -175 b 274 -187 325 -186 299 -187 "},"`":{"ha":479,"x_min":0,"x_max":0,"o":"m 424 642 b 240 619 350 575 306 554 b 40 857 197 661 69 814 b 24 896 35 864 24 888 b 43 939 24 913 32 928 b 104 993 50 947 96 986 b 246 1017 142 1025 196 1051 b 444 746 313 972 410 824 b 424 642 461 710 453 668 "},"\n":{"ha":0,"x_min":0,"x_max":0,"o":""}}}
